<svg version="1.1" xmlns="http://www.w3.org/2000/svg" xmlns:xlink="http://www.w3.org/1999/xlink" width="38.46528" height="45.14434" viewBox="0,0,38.46528,45.14434"><g transform="translate(-220.76736,-157.42783)"><g data-paper-data="{&quot;isPaintingLayer&quot;:true}" fill-rule="nonzero" stroke-linejoin="miter" stroke-miterlimit="10" stroke-dasharray="" stroke-dashoffset="0" style="mix-blend-mode: normal"><path d="M222.51736,200.82217v-41.64434h34.96528v41.64434z" fill="#e5eaff" stroke="#1e2b56" stroke-width="3.5" stroke-linecap="butt"/><path d="M252.39417,178.48518c0.24183,10.0571 -9.49537,18.4488 -12.8414,18.38479c-3.32133,-0.06353 -12.24134,-10.24037 -11.9469,-18.38479c0.19231,-5.31941 7.8659,-6.99627 12.39415,-7.19068c4.0291,-0.17297 12.25423,1.37182 12.39415,7.19068z" fill="#ff475d" stroke="none" stroke-width="NaN" stroke-linecap="butt"/><path d="M230.40133,179.51319c0,-0.78969 1.07903,-1.92774 1.07903,-1.92774c0,0 1.07902,1.13805 1.07902,1.92774c0,0.78969 -0.4831,1.42987 -1.07902,1.42987c-0.59593,0 -1.07903,-0.64017 -1.07903,-1.42987z" fill="#ffffff" stroke="none" stroke-width="0" stroke-linecap="butt"/><path d="M242.80198,185.29486c0,-0.78969 1.07903,-1.92774 1.07903,-1.92774c0,0 1.07902,1.13805 1.07902,1.92774c0,0.78969 -0.4831,1.42987 -1.07902,1.42987c-0.59593,0 -1.07903,-0.64017 -1.07903,-1.42987z" fill="#ffffff" stroke="none" stroke-width="0" stroke-linecap="butt"/><path d="M239.07189,185.29486c0,-0.78969 1.07903,-1.92774 1.07903,-1.92774c0,0 1.07902,1.13805 1.07902,1.92774c0,0.78969 -0.4831,1.42987 -1.07902,1.42987c-0.59593,0 -1.07903,-0.64017 -1.07903,-1.42987z" fill="#ffffff" stroke="none" stroke-width="0" stroke-linecap="butt"/><path d="M238.82321,193.74973c0,-0.78969 1.07903,-1.92774 1.07903,-1.92774c0,0 1.07902,1.13805 1.07902,1.92774c0,0.78969 -0.4831,1.42987 -1.07902,1.42987c-0.59593,0 -1.07903,-0.64017 -1.07903,-1.42987z" fill="#ffffff" stroke="none" stroke-width="0" stroke-linecap="butt"/><path d="M238.08147,179.71447c0,-0.78969 1.07903,-1.92774 1.07903,-1.92774c0,0 1.07903,1.13805 1.07903,1.92774c0,0.78969 -0.4831,1.42987 -1.07903,1.42987c-0.59593,0 -1.07903,-0.64017 -1.07903,-1.42987z" fill="#ffffff" stroke="none" stroke-width="0" stroke-linecap="butt"/><path d="M241.29222,189.76796c0,-0.78969 1.07903,-1.92774 1.07903,-1.92774c0,0 1.07903,1.13805 1.07903,1.92774c0,0.78969 -0.4831,1.42987 -1.07903,1.42987c-0.59593,0 -1.07903,-0.64017 -1.07903,-1.42987z" fill="#ffffff" stroke="none" stroke-width="0" stroke-linecap="butt"/><path d="M235.57467,189.02484c0,-0.78969 1.07903,-1.92774 1.07903,-1.92774c0,0 1.07903,1.13805 1.07903,1.92774c0,0.78969 -0.4831,1.42987 -1.07903,1.42987c-0.59593,0 -1.07903,-0.64017 -1.07903,-1.42987z" fill="#ffffff" stroke="none" stroke-width="0" stroke-linecap="butt"/><path d="M233.95392,183.62952c0,-0.78969 1.07903,-1.92774 1.07903,-1.92774c0,0 1.07903,1.13805 1.07903,1.92774c0,0.78969 -0.4831,1.42987 -1.07903,1.42987c-0.59593,0 -1.07903,-0.64017 -1.07903,-1.42987z" fill="#ffffff" stroke="none" stroke-width="0" stroke-linecap="butt"/><path d="M242.65992,178.71744c0,-0.78969 1.07903,-1.92774 1.07903,-1.92774c0,0 1.07903,1.13805 1.07903,1.92774c0,0.78969 -0.4831,1.42987 -1.07903,1.42987c-0.59593,0 -1.07903,-0.64017 -1.07903,-1.42987z" fill="#ffffff" stroke="none" stroke-width="0" stroke-linecap="butt"/><path d="M246.35005,182.65678c0,-0.78969 1.07903,-1.92774 1.07903,-1.92774c0,0 1.07903,1.13805 1.07903,1.92774c0,0.78969 -0.4831,1.42987 -1.07903,1.42987c-0.59593,0 -1.07903,-0.64017 -1.07903,-1.42987z" fill="#ffffff" stroke="none" stroke-width="0" stroke-linecap="butt"/><path d="M248.0354,177.71914c0,-0.78969 1.07903,-1.92774 1.07903,-1.92774c0,0 1.07903,1.13805 1.07903,1.92774c0,0.78969 -0.4831,1.42987 -1.07903,1.42987c-0.59593,0 -1.07903,-0.64017 -1.07903,-1.42987z" fill="#ffffff" stroke="none" stroke-width="0" stroke-linecap="butt"/><g><path d="M234.53647,174.8904c-2.46618,0.64445 -5.39083,-1.08203 -5.39083,-1.08203c0,0 1.74745,-2.77848 4.21364,-3.42293c2.46619,-0.64445 4.71725,1.08918 4.71725,1.08918c0,0 -1.07387,2.77133 -3.54005,3.41578z" fill="#62d630" stroke="#1e2b56" stroke-width="0" stroke-linecap="butt"/><path d="M245.57459,174.89039c-2.46618,-0.64445 -3.54005,-3.41578 -3.54005,-3.41578c0,0 2.25106,-1.73363 4.71725,-1.08918c2.46618,0.64445 4.21363,3.42293 4.21363,3.42293c0,0 -2.92464,1.72648 -5.39082,1.08203z" fill="#62d630" stroke="#1e2b56" stroke-width="0" stroke-linecap="butt"/><path d="M240.35941,175.56269c-1.35812,-2.15706 -0.24575,-4.91316 -0.24575,-4.91316c0,0 2.8279,0.27523 4.18602,2.43229c1.35812,2.15706 0.73219,5.37914 0.73219,5.37914c0,0 -3.31434,-0.7412 -4.67246,-2.89826z" fill="#62d630" stroke="#1e2b56" stroke-width="0" stroke-linecap="butt"/><path d="M239.64438,175.5627c-1.35812,2.15706 -4.67246,2.89826 -4.67246,2.89826c0,0 -0.62592,-3.22208 0.7322,-5.37914c1.35813,-2.15706 4.18601,-2.43229 4.18601,-2.43229c0,0 1.11238,2.7561 -0.24574,4.91316z" fill="#62d630" stroke="#1e2b56" stroke-width="0" stroke-linecap="butt"/><path d="M245.25002,170.71429c0,0.86294 -2.37849,1.5625 -5.3125,1.5625c-2.93401,0 -5.3125,-0.69956 -5.3125,-1.5625c0,-0.86294 2.37849,-1.5625 5.3125,-1.5625c2.93401,0 5.3125,0.69956 5.3125,1.5625z" fill="#62d630" stroke="none" stroke-width="0" stroke-linecap="butt"/><path d="M240.08336,170.54166c0,0 -1.34979,-1.04914 -0.59071,-3.59413c0.44304,-1.48543 1.13237,-1.57253 1.13237,-1.57253" fill="none" stroke="#62d630" stroke-width="2.5" stroke-linecap="round"/></g></g></g></svg>