<svg version="1.1" xmlns="http://www.w3.org/2000/svg" xmlns:xlink="http://www.w3.org/1999/xlink" width="38.46528" height="45.14434" viewBox="0,0,38.46528,45.14434"><g transform="translate(-220.76736,-157.42783)"><g data-paper-data="{&quot;isPaintingLayer&quot;:true}" fill-rule="nonzero" stroke-linejoin="miter" stroke-miterlimit="10" stroke-dasharray="" stroke-dashoffset="0" style="mix-blend-mode: normal"><path d="M222.51736,200.82217v-41.64434h34.96528v41.64434z" fill="#e5eaff" stroke="#1e2b56" stroke-width="3.5" stroke-linecap="butt"/><path d="M235.84815,182.36697c0,0 -0.71139,-2.04912 -1.63563,-2.21445c-1.32184,-0.23647 -4.13746,1.82249 -4.13746,1.82249c0,0 0.86549,-2.31051 1.35946,-3.22575c0.4569,-0.84656 0.75898,-2.11397 0.75898,-2.11397c0,0 -0.94542,-0.02861 -1.69149,-0.07062c-0.91559,-0.05156 -2.57506,0.983 -2.57506,0.983c0,0 1.03371,-1.88174 1.57712,-2.61609c0.49479,-0.66862 1.55119,-1.61129 1.55119,-1.61129c0,0 -1.37597,-0.49194 -2.19999,-0.7164c-1.04084,-0.28352 -3.43277,0.48855 -3.43277,0.48855c0,0 1.02957,-1.514 1.60081,-1.95816c0.63603,-0.49453 1.20887,-1.12537 1.20887,-1.12537c0,0 -0.35319,-1.16554 -0.90075,-1.52098c-0.6585,-0.42747 -2.14882,-1.27551 -2.14882,-1.27551c0,0 1.45515,-0.52015 2.27766,-0.48087c0.85332,0.04074 2.04515,0.00752 2.04515,0.00752c0,0 0.0692,-0.89983 0.10422,-1.38757c0.07107,-0.98958 0.77121,-2.91335 0.77121,-2.91335c0,0 0.29313,1.20013 0.72375,1.82992c0.38255,0.55946 1.61231,1.83621 1.61231,1.83621c0,0 0.52846,-0.75776 1.50287,-1.18912c0.86642,-0.38356 2.76557,-0.81683 2.76557,-0.81683c0,0 -1.12648,1.77165 -1.43762,2.65506c-0.23201,0.65874 -0.26252,2.17204 -0.26252,2.17204c0,0 1.65044,-1.31419 2.48065,-1.65161c0.90072,-0.36607 2.72938,-0.46591 2.72938,-0.46591c0,0 -1.37101,1.65431 -1.64238,2.59509c-0.22025,0.76356 0.13523,2.62972 0.13523,2.62972c0,0 0.82832,-1.27142 1.45123,-1.64797c0.74294,-0.44911 2.71013,-0.86756 2.71013,-0.86756c0,0 -0.89773,2.27705 -0.93878,3.29896c-0.03585,0.89254 -0.04238,2.05549 -0.04238,2.05549l1.83524,1.90504z" fill="#59ae34" stroke="#418e1f" stroke-width="0" stroke-linecap="round"/><g stroke="none" stroke-linecap="butt"><path d="M251.1869,180.3049c4.06423,5.26727 5.462,11.2397 0.24871,15.02348c-6.55025,4.75414 -10.40495,1.21631 -14.46917,-4.05095c-4.06423,-5.26727 -5.57988,-10.76929 -0.2487,-15.0235c5.3731,-3.55349 10.40494,-1.2163 14.46917,4.05096z" fill="#ffcc47" stroke-width="NaN"/><path d="M236.54129,187.61194l0.52157,-4.04551l4.04551,0.52156l-0.52156,4.04551z" fill="#fdbb16" stroke-width="0"/><path d="M240.90612,193.26879l0.52157,-4.04551l4.04551,0.52156l-0.52156,4.04551z" fill="#fdbb16" stroke-width="0"/><path d="M241.06204,194.41506l4.04551,0.52157l-0.21342,1.65547c0,0 -1.47209,-0.3499 -2.30112,-0.82088c-0.82904,-0.47097 -1.53097,-1.35615 -1.53097,-1.35615z" fill="#fdbb16" stroke-width="0"/><path d="M234.1896,184.88034c-0.24531,-0.92138 -0.21041,-2.43408 -0.21041,-2.43408l1.65548,0.21342l-0.52155,4.04552c0,0 -0.6782,-0.90349 -0.9235,-1.82488z" data-paper-data="{&quot;index&quot;:null}" fill="#fdbb16" stroke-width="0"/><path d="M251.96862,194.36291l0.52157,-4.04551l1.65547,0.21341c0,0 -0.34989,1.4721 -0.82088,2.30112c-0.47097,0.82904 -1.35616,1.53097 -1.35616,1.53097z" fill="#fdbb16" stroke-width="0"/><path d="M239.75465,175.24495c0.92138,-0.24531 2.43408,-0.21041 2.43408,-0.21041l-0.21343,1.65548l-4.04552,-0.52156c0,0 0.9035,-0.6782 1.82489,-0.92351z" data-paper-data="{&quot;index&quot;:null}" fill="#fdbb16" stroke-width="0"/><path d="M248.64163,196.25014c-0.92138,0.24531 -2.43408,0.21041 -2.43408,0.21041l0.21343,-1.65548l4.04552,0.52156c0,0 -0.90349,0.6782 -1.82486,0.9235z" data-paper-data="{&quot;index&quot;:null}" fill="#fdbb16" stroke-width="0"/><path d="M236.61657,177.37705l-0.52157,4.04551l-1.65548,-0.21343c0,0 0.34991,-1.47208 0.82088,-2.30112c0.47097,-0.82904 1.35614,-1.53097 1.35614,-1.53097z" data-paper-data="{&quot;index&quot;:null}" fill="#fdbb16" stroke-width="0"/><path d="M253.80371,186.78331c0.24531,0.92138 0.21041,2.43408 0.21041,2.43408l-1.65548,-0.21342l0.52156,-4.04552c0,0 0.67821,0.90349 0.9235,1.82488z" data-paper-data="{&quot;index&quot;:null}" fill="#fdbb16" stroke-width="0"/><path d="M247.25793,177.67196l-4.04552,-0.52156l0.21343,-1.65548c0,0 1.47209,0.3499 2.30112,0.82088c0.82904,0.47097 1.53097,1.35615 1.53097,1.35615z" data-paper-data="{&quot;index&quot;:null}" fill="#fdbb16" stroke-width="0"/><path d="M246.70011,193.54311l0.52155,-4.04552l4.04552,0.52156l-0.52157,4.04551z" fill="#fdbb16" stroke-width="0"/><path d="M237.53883,181.91118l0.52155,-4.04552l4.04551,0.52157l-0.52156,4.04551z" fill="#fdbb16" stroke-width="0"/><path d="M241.90366,187.56803l0.52156,-4.04551l4.04551,0.52156l-0.52155,4.04552z" fill="#fdbb16" stroke-width="0"/><path d="M243.04122,182.4105l0.52157,-4.04551l4.04551,0.52156l-0.52155,4.04552z" fill="#fdbb16" stroke-width="0"/><path d="M247.40606,188.06735l0.52157,-4.04551l4.04551,0.52156l-0.52156,4.04551z" fill="#fdbb16" stroke-width="0"/><path d="M248.45956,182.66075l0.52156,-4.04551c0,0 1.3152,1.19836 2.00678,2.09464c0.69159,0.8963 1.51718,2.47242 1.51718,2.47242z" fill="#fdbb16" stroke-width="0"/><path d="M239.41543,193.28229c0,0 -1.3152,-1.19836 -2.00678,-2.09464c-0.69159,-0.8963 -1.51718,-2.47242 -1.51718,-2.47242l4.04551,0.52156z" data-paper-data="{&quot;index&quot;:null}" fill="#fdbb16" stroke-width="0"/></g></g></g></svg>