<svg version="1.1" xmlns="http://www.w3.org/2000/svg" xmlns:xlink="http://www.w3.org/1999/xlink" width="38.46528" height="45.14434" viewBox="0,0,38.46528,45.14434"><g transform="translate(-220.76736,-157.42783)"><g data-paper-data="{&quot;isPaintingLayer&quot;:true}" fill-rule="nonzero" stroke-linejoin="miter" stroke-miterlimit="10" stroke-dasharray="" stroke-dashoffset="0" style="mix-blend-mode: normal"><path d="M222.51736,200.82217v-41.64434h34.96528v41.64434z" fill="#e5eaff" stroke="#1e2b56" stroke-width="3.5" stroke-linecap="butt"/><g stroke="#1e2b56" stroke-width="0" stroke-linecap="butt"><path d="M245.93129,170.85065c-2.71973,1.52968 -6.02205,0.00245 -6.02205,0.00245c0,0 0.50804,-3.44087 3.22778,-4.97056c2.71973,-1.52968 6.62129,-0.56894 6.62129,-0.56894c0,0 -1.10728,4.00737 -3.82701,5.53705z" fill="#62d630"/><path d="M243.38235,169.73859c-1.14172,0.64214 -3.6855,1.12137 -3.6855,1.12137c0,0 1.77663,-1.57317 2.91835,-2.21533c1.14172,-0.64214 4.28597,-1.61354 4.28597,-1.61354c0,0 -2.3771,2.06535 -3.51882,2.70751z" fill="#418e1f"/></g><path d="M237.29497,164.20621c0,0 1.20634,1.08115 1.65018,2.46642c0.50858,1.58734 0.74796,4.07601 0.74796,4.07601" data-paper-data="{&quot;index&quot;:null}" fill="none" stroke="#418e1f" stroke-width="2.5" stroke-linecap="round"/><path d="M226.93683,182.89611c0,-5.94672 3.97358,-10.96536 9.41045,-12.54562c1.15917,-0.33692 1.98655,0.37863 3.25443,0.37863c1.11807,0 2.60163,-0.75571 3.6374,-0.49147c5.64777,1.44085 9.82407,6.56194 9.82407,12.65846c0,7.21459 -5.84858,13.06317 -13.06317,13.06317c-7.21459,0 -13.06317,-5.84858 -13.06317,-13.06317z" fill="#ff9435" stroke="none" stroke-width="NaN" stroke-linecap="butt"/><path d="M231.60638,176.11575c1.85047,-2.77997 5.98524,-3.77566 6.48754,-3.39882c0.50229,0.37684 -1.64195,2.01615 -4.06016,5.62543c-2.2323,3.26281 -2.98548,6.64512 -3.47382,6.25035c-1.05156,-0.85007 -1.20699,-5.09161 1.04644,-8.47696z" data-paper-data="{&quot;index&quot;:null}" fill="#ffd6b3" stroke="none" stroke-width="0" stroke-linecap="butt"/></g></g></svg>