<svg version="1.1" xmlns="http://www.w3.org/2000/svg" xmlns:xlink="http://www.w3.org/1999/xlink" width="38.46528" height="45.14434" viewBox="0,0,38.46528,45.14434"><g transform="translate(-220.76736,-157.42783)"><g data-paper-data="{&quot;isPaintingLayer&quot;:true}" fill-rule="nonzero" stroke-linejoin="miter" stroke-miterlimit="10" stroke-dasharray="" stroke-dashoffset="0" style="mix-blend-mode: normal"><path d="M222.51736,200.82217v-41.64434h34.96528v41.64434z" fill="#e5eaff" stroke="#1e2b56" stroke-width="3.5" stroke-linecap="butt"/><g stroke="#1e2b56" stroke-width="0" stroke-linecap="butt"><path d="M247.33751,167.80586c0.82033,3.01065 -1.46607,5.84086 -1.46607,5.84086c0,0 -3.21312,-1.33173 -4.03344,-4.34239c-0.82033,-3.01065 1.06279,-6.56015 1.06279,-6.56015c0,0 3.6164,2.05102 4.43672,5.06167z" fill="#62d630"/><path d="M245.63749,170.00669c0.34436,1.26385 0.18883,3.84767 0.18883,3.84767c0,0 -1.09248,-2.1066 -1.43685,-3.37045c-0.34436,-1.26385 -0.51972,-4.55004 -0.51972,-4.55004c0,0 1.42336,2.80896 1.76773,4.07282z" fill="#418e1f"/></g><path d="M250.17757,167.52307c0,0 0.21056,1.05612 -1.34081,3.27143c-1.56167,2.23004 -3.35334,3.83235 -3.35334,3.83235" data-paper-data="{&quot;index&quot;:null}" fill="none" stroke="#418e1f" stroke-width="2.5" stroke-linecap="round"/><path d="M248.52655,189.88502c-3.43287,5.05051 -9.12008,7.41749 -13.85469,6.16978c-1.01503,-0.26748 -2.43647,0.16758 -3.33235,-0.44135c-0.88483,-0.60143 -1.18751,-2.20285 -1.80545,-3.03532c-2.92604,-3.94191 -2.82647,-10.12026 0.61546,-15.18411c3.41606,-5.02577 8.85962,-7.09294 13.58027,-5.88655c1.04024,0.26584 1.09265,1.67965 2.00897,2.30248c0.72444,0.49241 2.49508,0.22888 3.04098,0.88c3.27807,3.90994 3.32049,9.93738 -0.25321,15.19508z" fill="#ffe040" stroke="none" stroke-width="0" stroke-linecap="butt"/><path d="M234.546,179.42648c1.02535,-2.16246 4.23724,-4.85429 3.11563,-5.27129c-1.1216,-0.41701 -4.81018,2.1783 -5.9046,4.30663c-1.10674,2.1523 -2.05542,6.39974 -0.93382,6.81675c1.1216,0.41701 2.61604,-3.51797 3.72278,-5.85209z" fill="#fff2b3" stroke="none" stroke-width="0" stroke-linecap="butt"/></g></g></svg>