<svg version="1.1" xmlns="http://www.w3.org/2000/svg" xmlns:xlink="http://www.w3.org/1999/xlink" width="38.46528" height="45.14434" viewBox="0,0,38.46528,45.14434"><g transform="translate(-220.76736,-157.42783)"><g data-paper-data="{&quot;isPaintingLayer&quot;:true}" fill-rule="nonzero" stroke-linecap="butt" stroke-linejoin="miter" stroke-miterlimit="10" stroke-dasharray="" stroke-dashoffset="0" style="mix-blend-mode: normal"><path d="M222.51736,200.82217v-41.64434h34.96528v41.64434z" fill="#e5eaff" stroke="#1e2b56" stroke-width="3.5"/><path d="M243.23507,168.18532c0.19614,3.11424 -2.61418,5.42504 -2.61418,5.42504c0,0 -2.87842,-1.95253 -3.07455,-5.06677c-0.19614,-3.11424 2.36429,-6.2109 2.36429,-6.2109c0,0 3.12831,2.73838 3.32444,5.85262z" fill="#62d630" stroke="#1e2b56" stroke-width="0"/><path d="M247.2151,170.25176c-1.54442,2.71141 -5.16179,3.10177 -5.16179,3.10177c0,0 -1.33552,-3.21154 0.20891,-5.92295c1.54442,-2.71141 5.38396,-3.89591 5.38396,-3.89591c0,0 1.11335,4.00568 -0.43107,6.71708z" fill="#62d630" stroke="#1e2b56" stroke-width="0"/><path d="M249.63431,174.60033c-2.47071,1.90592 -5.95874,0.87086 -5.95874,0.87086c0,0 0.00651,-3.47817 2.47724,-5.38408c2.47071,-1.90592 6.47002,-1.51786 6.47002,-1.51786c0,0 -0.51779,4.12516 -2.9885,6.03107z" fill="#62d630" stroke="#1e2b56" stroke-width="0"/><path d="M247.14259,183.00157c-4.0397,6.55022 -14.61423,16.18912 -18.1495,14.46208c-3.66193,-1.78893 -0.34545,-17.48113 2.5047,-23.07125c2.92139,-5.72986 7.93911,-6.72823 12.25929,-4.35087c4.3202,2.37736 6.84773,7.34616 3.3855,12.96004z" fill="#ff7c44" stroke="none" stroke-width="0"/><path d="M246.39381,178.81553c-0.50319,0.9144 -1.97932,0.99259 -5.29164,-0.7549c-3.17847,-1.67687 -3.97263,-3.15183 -3.46945,-4.06624c0.50319,-0.9144 1.58321,-1.28971 5.29164,0.7549c3.21726,1.7738 3.97263,3.15183 3.46945,4.06624z" fill="#f17641" stroke="none" stroke-width="0"/><path d="M244.69921,184.83346c-0.50319,0.9144 -1.97474,0.99512 -5.27339,-0.74486c-3.16535,-1.66965 -3.95438,-3.14179 -3.4512,-4.0562c0.50319,-0.9144 1.58042,-1.29124 5.27339,0.74486c3.20385,1.76642 3.95438,3.14179 3.4512,4.0562z" fill="#f17641" stroke="none" stroke-width="0"/><path d="M237.01257,189.63077c-0.50319,0.9144 -1.62077,1.1899 -3.86375,0.03086c-2.15235,-1.11221 -2.54474,-2.36608 -2.04155,-3.28048c0.50319,-0.9144 1.36467,-1.40997 3.86375,-0.03086c2.16809,1.19646 2.54474,2.36608 2.04155,3.28048z" fill="#f17641" stroke="none" stroke-width="0"/><path d="M233.38187,194.52886c-0.50319,0.9144 -1.45424,1.28154 -3.20058,0.39579c-1.67578,-0.84996 -1.88157,-2.00115 -1.37838,-2.91555c0.50319,-0.9144 1.26317,-1.46582 3.20058,-0.39579c1.68081,0.92831 1.88157,2.00115 1.37838,2.91555z" fill="#f17641" stroke="none" stroke-width="0"/><path d="M234.62244,176.88253c-1.7677,2.89569 -2.71555,6.02131 -3.74113,6.03423c-1.30182,0.0164 -0.32878,-4.7242 1.43892,-7.61989c1.7677,-2.89569 4.62181,-5.41253 5.10413,-4.50734c0.48232,0.90519 -1.03421,3.19731 -2.80191,6.093z" fill="#ffc9b3" stroke="none" stroke-width="0"/></g></g></svg>