<svg version="1.1" xmlns="http://www.w3.org/2000/svg" xmlns:xlink="http://www.w3.org/1999/xlink" width="38.46528" height="45.14434" viewBox="0,0,38.46528,45.14434"><g transform="translate(-220.76736,-157.42783)"><g data-paper-data="{&quot;isPaintingLayer&quot;:true}" fill-rule="nonzero" stroke-linejoin="miter" stroke-miterlimit="10" stroke-dasharray="" stroke-dashoffset="0" style="mix-blend-mode: normal"><path d="M222.51736,200.82217v-41.64434h34.96528v41.64434z" fill="#e5eaff" stroke="#1e2b56" stroke-width="3.5" stroke-linecap="butt"/><path d="M253.19665,182.12625c0.23832,7.46587 -5.90984,11.875 -13.2,11.875c-7.29016,0 -13.2,-5.52373 -13.2,-11.875c0,-8.10127 5.90984,-11.5 13.2,-11.5c7.29016,0 12.92113,2.76386 13.2,11.5z" fill="#ff4a4a" stroke="none" stroke-width="0" stroke-linecap="butt"/><path d="M234.87497,169.1502c3.01466,-0.67702 5.83356,1.25644 5.83356,1.25644c0,0 -1.34756,2.14966 -4.36222,2.82667c-3.01466,0.67702 -6.55483,-0.37499 -6.55483,-0.37499c0,0 2.06883,-3.0311 5.08348,-3.70811z" fill="#62d630" stroke="#1e2b56" stroke-width="0" stroke-linecap="butt"/><path d="M245.1705,169.1502c3.01466,0.67701 5.08348,3.70811 5.08348,3.70811c0,0 -3.54018,1.05201 -6.55483,0.37499c-3.01466,-0.67701 -4.36222,-2.82667 -4.36222,-2.82667c0,0 2.81891,-1.93345 5.83356,-1.25644z" data-paper-data="{&quot;index&quot;:null}" fill="#62d630" stroke="#1e2b56" stroke-width="0" stroke-linecap="butt"/><path d="M244.52208,172.28433c1.96111,2.08922 2.19558,5.73614 2.19558,5.73614c0,0 -3.10277,-0.86065 -5.06388,-2.94988c-1.96111,-2.08922 -2.03792,-4.61587 -2.03792,-4.61587c0,0 2.94511,-0.25962 4.90622,1.82961z" data-paper-data="{&quot;index&quot;:null}" fill="#62d630" stroke="#1e2b56" stroke-width="0" stroke-linecap="butt"/><path d="M236.04156,172.28433c1.96111,-2.08923 4.90622,-1.82961 4.90622,-1.82961c0,0 -0.07682,2.52665 -2.03792,4.61587c-1.96111,2.08923 -5.06388,2.94988 -5.06388,2.94988c0,0 0.23447,-3.64692 2.19558,-5.73614z" data-paper-data="{&quot;index&quot;:null}" fill="#62d630" stroke="#1e2b56" stroke-width="0" stroke-linecap="butt"/><path d="M239.3,165.99875c0,0 0.63981,1.38829 0.73805,1.87196c0.15965,0.78596 0.12861,2.39471 0.12861,2.39471" fill="none" stroke="#62d630" stroke-width="2.5" stroke-linecap="round"/><path d="M231.13236,180.59516c-0.66705,2.50142 0.48553,4.853 -0.88182,4.86615c-1.24258,0.01195 -2.04995,-3.19088 -1.3829,-5.6923c0.66705,-2.50142 2.51447,-4.853 3.71516,-4.53282c1.20068,0.32018 -0.78339,2.85754 -1.45043,5.35897z" fill="#ffb3b3" stroke="none" stroke-width="0" stroke-linecap="butt"/></g></g></svg>