<svg version="1.1" xmlns="http://www.w3.org/2000/svg" xmlns:xlink="http://www.w3.org/1999/xlink" width="557.05706" height="393.39339" viewBox="0,0,557.05706,393.39339"><g transform="translate(38.32853,19.29668)"><g data-paper-data="{&quot;isPaintingLayer&quot;:true}" fill-rule="nonzero" stroke-linecap="butt" stroke-linejoin="miter" stroke-miterlimit="10" stroke-dasharray="" stroke-dashoffset="0" style="mix-blend-mode: normal"><path d="M-38.32853,374.09671v-393.39339h557.05706v393.39339z" fill="#7e77d6" stroke="#1e2b56" stroke-width="0"/><path d="M124.15,81.55333v-46h9v46z" data-paper-data="{&quot;index&quot;:null}" fill="#ffffff" stroke="none" stroke-width="0"/><path d="M224.65,81.55333v-46h9v46z" data-paper-data="{&quot;index&quot;:null}" fill="#ffffff" stroke="none" stroke-width="0"/><path d="M329.15,81.55333l22.25,-46h9l-22.25,46z" data-paper-data="{&quot;index&quot;:null}" fill="#ffffff" stroke="none" stroke-width="0"/><path d="M337.9,63.27679l-17,-27.72347h9l17,27.72347z" data-paper-data="{&quot;index&quot;:null}" fill="#ffffff" stroke="none" stroke-width="0"/><path d="M139.45,81.55333v-46h9v46z" data-paper-data="{&quot;index&quot;:null}" fill="#ffffff" stroke="none" stroke-width="0"/><path d="M288.95,81.55333v-46h9v46z" data-paper-data="{&quot;index&quot;:null}" fill="#ffffff" stroke="none" stroke-width="0"/><path d="M315.35,81.55333l-23.4,-21.92346h9l23.4,21.92347z" data-paper-data="{&quot;index&quot;:null}" fill="#ffffff" stroke="none" stroke-width="0"/><path d="M166.95,81.55333h-23v-9h27.8z" data-paper-data="{&quot;index&quot;:null}" fill="#ffffff" stroke="none" stroke-width="0"/><path d="M163.57204,63.55333h-19.62204v-9h23.12204z" data-paper-data="{&quot;index&quot;:null}" fill="#ffffff" stroke="none" stroke-width="0"/><path d="M187.41667,44.58111h-43.3v-9.02778h48.1z" data-paper-data="{&quot;index&quot;:null}" fill="#ffffff" stroke="none" stroke-width="0"/><path d="M97.15,81.55333v-46h9v46z" data-paper-data="{&quot;index&quot;:null}" fill="#ffffff" stroke="none" stroke-width="0"/><path d="M197.65,81.55333v-46h9v46z" data-paper-data="{&quot;index&quot;:null}" fill="#ffffff" stroke="none" stroke-width="0"/><path d="M97.75,81.55333l26.4,-46h9l-26.4,46z" data-paper-data="{&quot;index&quot;:null}" fill="#ffffff" stroke="none" stroke-width="0"/><path d="M198.25,81.55333l26.4,-46h9l-26.4,46z" data-paper-data="{&quot;index&quot;:null}" fill="#ffffff" stroke="none" stroke-width="0"/><path d="M70.75,81.55333l26.4,-46h9l-26.4,46z" data-paper-data="{&quot;index&quot;:null}" fill="#ffffff" stroke="none" stroke-width="0"/><path d="M171.25,81.55333l26.4,-46h9l-26.4,46z" data-paper-data="{&quot;index&quot;:null}" fill="#ffffff" stroke="none" stroke-width="0"/><path d="M237.36667,58.55333c0,-12.70255 10.29745,-23 23,-23c12.70255,0 23,10.29745 23,23c0,12.70255 -10.29745,23 -23,23c-12.70255,0 -23,-10.29745 -23,-23z" fill="#ffffff" stroke="none" stroke-width="0"/><path d="M321.70383,49.39167c-0.38671,15.43292 -24.2,13.83835 -24.2,13.83835v-27.6767c0,0 24.49704,1.98417 24.2,13.83835z" fill="#ffffff" stroke="none" stroke-width="0"/><path d="M297.7705,55.04121v-12.50123c0,0 12.54374,-0.50825 12.50123,6.12938c-0.0473,7.38676 -12.50123,6.37185 -12.50123,6.37185z" fill="#7e77d6" stroke="none" stroke-width="0"/><text transform="translate(181.63658,126.20651) scale(0.60073,0.60073)" font-size="40" xml:space="preserve" fill="#ffffff" fill-rule="nonzero" stroke="#ffffff" stroke-width="1" stroke-linecap="butt" stroke-linejoin="miter" stroke-miterlimit="10" stroke-dasharray="" stroke-dashoffset="0" font-family="Sans Serif" font-weight="normal" text-anchor="start" style="mix-blend-mode: normal"><tspan x="0" dy="0">GAME</tspan></text></g></g></svg>