<svg version="1.1" xmlns="http://www.w3.org/2000/svg" xmlns:xlink="http://www.w3.org/1999/xlink" width="38.46528" height="45.14434" viewBox="0,0,38.46528,45.14434"><g transform="translate(-220.76742,-157.42783)"><g data-paper-data="{&quot;isPaintingLayer&quot;:true}" fill-rule="nonzero" stroke-linecap="butt" stroke-linejoin="miter" stroke-miterlimit="10" stroke-dasharray="" stroke-dashoffset="0" style="mix-blend-mode: normal"><path d="M222.51742,200.82217v-41.64434h34.96528v41.64434z" fill="#e5eaff" stroke="#1e2b56" stroke-width="3.5"/><path d="M241.35979,179.43663c5.33209,8.57127 12.70504,10.92192 9.7887,15.43625c-2.41812,3.74311 -13.92208,-0.97661 -19.25417,-9.54789c-5.33209,-8.57127 -4.50961,-21.36951 -0.05504,-21.49144c6.40964,-0.17544 4.18841,7.03181 9.5205,15.60309z" fill="#fff4a0" stroke="#1e2b56" stroke-width="0"/><path d="M241.35979,179.43663c5.33209,8.57127 12.70504,10.92192 9.7887,15.43625c-2.41812,3.74311 -13.92208,-0.97661 -19.25417,-9.54789c-0.19378,-0.31151 -0.07336,-0.09459 -0.07336,-0.09459l9.53029,-5.92002c0,0 -0.3619,-0.46921 0.00854,0.12625z" fill="#f4d820" stroke="#1e2b56" stroke-width="0"/><path d="M247.17601,185.16829c-1.23608,0.66572 -2.24097,-1.28234 -4.2349,-1.87445c-2.78937,-0.82832 -6.49494,-0.56726 -6.49494,-0.56726c0,0 2.75492,-5.07564 6.05193,-4.38783c3.29701,0.6878 7.97404,5.05436 4.67789,6.82955z" fill="#ffe946" stroke="none" stroke-width="0"/><path d="M236.96518,182.5866c0,0 0.0081,2.55374 -1.68007,4.9237c-1.20676,1.69412 0.1329,4.72626 -2.60904,4.82998c-2.38595,-0.35537 -3.37958,-3.35982 -2.27668,-6.58094c1.65072,-4.82107 6.5658,-3.17274 6.5658,-3.17274z" data-paper-data="{&quot;index&quot;:null}" fill="#ffe946" stroke="none" stroke-width="0"/><path d="M250.96493,195.25625c-1.64223,1.51513 -3.35044,1.1115 -3.7248,0.89665c-0.37436,-0.21485 0.20391,-2.85546 0.58885,-3.52618c0.38494,-0.67072 3.06559,-1.89482 3.43995,-1.67997c0.37436,0.21485 1.13473,2.98213 -0.304,4.3095z" fill="#291e0b" stroke="none" stroke-width="0"/><path d="M246.04197,186.83196c1.96576,1.66854 3.74176,2.98128 2.80613,3.47662c-0.93563,0.49534 -2.99657,-0.2661 -4.50759,-1.91286c-1.81242,-1.97522 -2.28501,-3.97801 -1.88608,-4.24333c0.88151,-0.58627 1.88363,1.2333 3.58754,2.67958z" fill="#fff5b3" stroke="none" stroke-width="0"/></g></g></svg>