<svg version="1.1" xmlns="http://www.w3.org/2000/svg" xmlns:xlink="http://www.w3.org/1999/xlink" width="46.94692" height="45.14434" viewBox="0,0,46.94692,45.14434"><g transform="translate(-212.28572,-157.42783)"><g data-paper-data="{&quot;isPaintingLayer&quot;:true}" fill-rule="nonzero" stroke-linejoin="miter" stroke-miterlimit="10" stroke-dasharray="" stroke-dashoffset="0" style="mix-blend-mode: normal"><path d="M222.51736,200.82217v-41.64434h34.96528v41.64434z" fill="#e5eaff" stroke="#1e2b56" stroke-width="3.5" stroke-linecap="butt"/><g stroke="#1e2b56" stroke-width="0" stroke-linecap="butt"><path d="M238.98634,165.00289c1.84709,2.51499 0.73005,5.97764 0.73005,5.97764c0,0 -3.47705,-0.08857 -5.32414,-2.60356c-1.84709,-2.51499 -1.36479,-6.50403 -1.36479,-6.50403c0,0 4.11179,0.61497 5.95888,3.12996z" fill="#62d630"/><path d="M238.19042,167.66751c0.77539,1.05577 1.55844,3.523 1.55844,3.523c0,0 -1.77632,-1.57353 -2.55172,-2.6293c-0.77539,-1.05577 -2.11956,-4.05961 -2.11956,-4.05961c0,0 2.33743,2.11014 3.11283,3.16591z" fill="#418e1f"/></g><path d="M239.65873,171.97211c0,0 0.111,-3.11578 1.18144,-5.09888c1.23445,-2.28695 2.59634,-2.87335 2.59634,-2.87335" fill="none" stroke="#6f3314" stroke-width="2.5" stroke-linecap="round"/><path d="M230.35715,188.18571c0.05355,-2.25974 1.48485,-4.79945 2.75051,-6.36989c0.31328,-0.38872 1.00821,-11.59676 6.71751,-11.7444c6.58248,-0.17022 7.08954,11.01858 7.32622,11.20666c2.00956,1.59687 3.42004,3.76568 3.42004,6.50763c0,5.28615 -2.02718,9.43701 -10.28571,9.71429c-8.24443,0.2768 -10.02857,-5.09441 -9.92857,-9.31428z" fill="#abdb3a" stroke="#1e2b56" stroke-width="0" stroke-linecap="butt"/><path d="M212.28572,182.78572z" fill="#d4ff51" stroke="none" stroke-width="0" stroke-linecap="butt"/><path d="M248.01412,191.21173c-1.53818,3.52824 -5.39421,4.45103 -5.60616,3.5955c-0.21196,-0.85553 1.17213,-2.18638 2.71143,-4.18931c1.64452,-2.13984 1.375,-4.72114 2.69661,-4.84384c0.83106,-0.07716 1.58928,2.24664 0.19812,5.43764z" data-paper-data="{&quot;index&quot;:null}" fill="#e8ffb3" stroke="none" stroke-width="0" stroke-linecap="butt"/></g></g></svg>