<svg version="1.1" xmlns="http://www.w3.org/2000/svg" xmlns:xlink="http://www.w3.org/1999/xlink" width="38.46528" height="45.14434" viewBox="0,0,38.46528,45.14434"><g transform="translate(-220.76736,-157.42783)"><g data-paper-data="{&quot;isPaintingLayer&quot;:true}" fill-rule="nonzero" stroke-linejoin="miter" stroke-miterlimit="10" stroke-dasharray="" stroke-dashoffset="0" style="mix-blend-mode: normal"><path d="M222.51736,200.82217v-41.64434h34.96528v41.64434z" fill="#e5eaff" stroke="#1e2b56" stroke-width="3.5" stroke-linecap="butt"/><path d="M233.35594,179.8208c0,0 0.45072,-4.36005 1.8909,-7.67238c1.72271,-3.96215 5.86043,-6.90012 5.86043,-6.90012c0,0 -0.128,3.94634 0.38712,8.99234c0.3229,3.16296 4.72875,8.83571 4.72875,8.83571" fill="none" stroke="#418e1f" stroke-width="2.5" stroke-linecap="round"/><path d="M242.24648,185.12541c0,4.61522 -3.88621,8.3566 -8.68009,8.3566c-4.79388,0 -8.68009,-3.74138 -8.68009,-8.3566c0,-2.60516 0.97115,-5.3506 3.17904,-6.46444c2.73937,-1.38195 3.86281,0.85554 5.68087,0.58939c1.81806,-0.26615 2.66804,-2.53567 5.62263,-0.34011c1.87571,1.39384 2.87762,3.74753 2.87762,6.21515z" fill="#ff3850" stroke="none" stroke-width="0" stroke-linecap="butt"/><path d="M255.11369,188.38097c0,4.61522 -3.88621,8.3566 -8.68009,8.3566c-4.79388,0 -8.68009,-3.74138 -8.68009,-8.3566c0,-2.60516 0.97115,-5.3506 3.17904,-6.46444c2.73937,-1.38195 3.86281,0.85554 5.68087,0.58939c1.81806,-0.26615 2.66804,-2.53567 5.62263,-0.34011c1.87571,1.39384 2.87762,3.74753 2.87762,6.21515z" fill="#f1374d" stroke="none" stroke-width="0" stroke-linecap="butt"/><path d="M226.30594,183.57322c0.41619,-1.86964 2.9811,-4.69868 3.88629,-3.88629c1.351,1.21249 -1.71733,2.68485 -2.04147,4.15573c-0.5585,2.53436 0.52273,3.77192 -0.78829,4.09808c-1.15862,0.28825 -1.50667,-2.34525 -1.05652,-4.36753z" fill="#ffb3bb" stroke="none" stroke-width="0" stroke-linecap="butt"/><path d="M239.17315,186.82878c0.41619,-1.86964 2.9811,-4.69868 3.88629,-3.88629c1.351,1.21249 -1.71733,2.68485 -2.04147,4.15573c-0.5585,2.53436 0.52273,3.77192 -0.78829,4.09808c-1.15862,0.28825 -1.50667,-2.34525 -1.05652,-4.36753z" fill="#ffb3bb" stroke="none" stroke-width="0" stroke-linecap="butt"/><g stroke="#1e2b56" stroke-width="0" stroke-linecap="butt"><path d="M244.78848,171.25618c-2.87629,-2.40552 -2.56515,-6.76646 -2.56515,-6.76646c0,0 4.08299,-0.89318 6.95928,1.51236c2.87629,2.40552 3.45674,7.19884 3.45674,7.19884c0,0 -4.97458,0.4608 -7.85088,-1.94473z" fill="#62d630"/><path d="M244.95362,167.91853c-1.20743,-1.00982 -2.82837,-3.66458 -2.82837,-3.66458c0,0 2.52388,1.32717 3.73133,2.33698c1.20743,1.00982 3.63696,4.12995 3.63696,4.12995c0,0 -3.33247,-1.79254 -4.53993,-2.80236z" fill="#418e1f"/></g></g></g></svg>