<svg version="1.1" xmlns="http://www.w3.org/2000/svg" xmlns:xlink="http://www.w3.org/1999/xlink" width="38.46528" height="45.14434" viewBox="0,0,38.46528,45.14434"><g transform="translate(-220.76736,-157.42783)"><g data-paper-data="{&quot;isPaintingLayer&quot;:true}" fill-rule="nonzero" stroke-linecap="butt" stroke-linejoin="miter" stroke-miterlimit="10" stroke-dasharray="" stroke-dashoffset="0" style="mix-blend-mode: normal"><path d="M222.51736,200.82217v-41.64434h34.96528v41.64434z" fill="#e5eaff" stroke="#1e2b56" stroke-width="3.5"/><g stroke="none" stroke-width="0"><path d="M224.75286,178.87254c0,-7.53326 6.10691,-13.64017 13.64017,-13.64017c7.53326,0 13.64018,6.10691 13.64018,13.64017c0,7.53326 -6.10692,13.64017 -13.64018,13.64017c-7.53326,0 -13.64017,-6.10691 -13.64017,-13.64017z" fill="#53b552"/><path d="M239.88493,178.87254c0,7.14196 -0.66795,12.93166 -1.49189,12.93166c-0.82394,0 -1.49189,-5.78969 -1.49189,-12.93166c0,-7.14196 0.66795,-12.93166 1.49189,-12.93166c0.82394,0 1.49189,5.78969 1.49189,12.93166z" fill="#2e7d3f"/><path d="M245.36961,178.87254c0,7.14196 -4.08293,12.71578 -4.90688,12.71578c-0.82394,0 2.544,-5.57383 2.544,-12.71578c0,-7.14196 -3.36796,-12.60786 -2.544,-12.60786c0.82394,0 4.90688,5.46589 4.90688,12.60786z" fill="#2e7d3f"/><path d="M236.13317,166.26469c0.82394,0 -2.544,5.46589 -2.544,12.60786c0,7.14196 3.36796,12.71578 2.544,12.71578c-0.82394,0 -4.90688,-5.57383 -4.90688,-12.71578c0,-7.14196 4.08293,-12.60786 4.90688,-12.60786z" data-paper-data="{&quot;index&quot;:null}" fill="#2e7d3f"/><path d="M250.1299,178.87254c0,7.14196 -5.73869,12.39198 -6.56264,12.39198c-0.82394,0 4.82066,-5.25002 4.82066,-12.39198c0,-7.14196 -5.64461,-12.28405 -4.82066,-12.28405c0.82394,0 6.56264,5.14208 6.56264,12.28405z" fill="#2e7d3f"/><path d="M233.02863,166.5885c0.82394,0 -4.82065,5.14208 -4.82065,12.28405c0,7.14196 5.64461,12.39198 4.82065,12.39198c-0.82394,0 -6.56264,-5.25002 -6.56264,-12.39198c0,-7.14196 5.73869,-12.28405 6.56264,-12.28405z" data-paper-data="{&quot;index&quot;:null}" fill="#2e7d3f"/><path d="M240.47819,166.79324c0,0.66305 -0.93355,1.20055 -2.08514,1.20055c-1.15159,0 -2.08515,-0.5375 -2.08515,-1.20055c0,-0.66305 0.93356,-1.20054 2.08515,-1.20054c1.15159,0 2.08514,0.53749 2.08514,1.20054z" fill="#8ed57c"/><path d="M247.50776,172.07854c1.75508,4.07405 1.34681,6.30776 0.5513,6.2609c-0.56513,-0.03329 -1.77589,-1.78232 -2.70406,-4.3398c-0.82611,-2.27628 -2.70579,-4.94015 -2.4393,-5.7838c0.11311,-0.35807 3.10146,0.40261 4.59205,3.8627z" fill="#b4ffb3"/></g><g stroke="none"><path d="M248.96007,192.82937c-10.16831,6.12724 -16.96453,-4.2309 -16.96453,-4.2309l21.86578,-12.5687c0,0 5.32494,10.91543 -4.90125,16.7996z" fill="#397549" stroke-width="NaN"/><path d="M248.35148,191.76837c-9.14301,5.50941 -15.25396,-3.80428 -15.25396,-3.80428l19.66101,-11.30137c0,0 4.788,9.8148 -4.40705,15.10565z" fill="#bcffc1" stroke-width="NaN"/><path d="M247.65295,190.55056c-7.93995,4.78447 -13.24681,-3.30371 -13.24681,-3.30371l17.07396,-9.81431c0,0 4.15799,8.52335 -3.82715,13.11802z" fill="#ff6685" stroke-width="NaN"/><path d="M238.45524,188.11162c-0.45002,-0.16969 -0.63254,-0.79067 -0.40767,-1.387c0.22486,-0.59633 1.36373,-1.14848 1.36373,-1.14848c0,0 0.49078,1.16664 0.26592,1.76297c-0.22486,0.59634 -0.77195,0.9422 -1.22197,0.77251z" data-paper-data="{&quot;index&quot;:null}" fill="#000000" stroke-width="0"/><path d="M242.41667,190.6042c-0.47982,-0.03292 -0.83342,-0.57505 -0.7898,-1.21087c0.04362,-0.63583 0.97527,-1.49251 0.97527,-1.49251c0,0 0.80592,0.9759 0.76229,1.61173c-0.04362,0.63583 -0.46795,1.12457 -0.94777,1.09166z" data-paper-data="{&quot;index&quot;:null}" fill="#000000" stroke-width="0"/><path d="M246.27796,188.82303c-0.33068,-0.54481 -0.06283,-1.7818 -0.06283,-1.7818c0,0 1.22099,0.33329 1.55167,0.8781c0.33068,0.54481 0.26548,1.18877 -0.14566,1.43832c-0.41113,0.24955 -1.01249,0.01019 -1.34319,-0.53462z" data-paper-data="{&quot;index&quot;:null}" fill="#000000" stroke-width="0"/><path d="M241.9259,185.79463c-0.0289,-0.63666 0.79939,-1.59365 0.79939,-1.59365c0,0 0.91157,0.87803 0.94047,1.51469c0.0289,0.63666 -0.33716,1.17046 -0.81761,1.19226c-0.48045,0.02181 -0.89335,-0.47663 -0.92225,-1.11329z" data-paper-data="{&quot;index&quot;:null}" fill="#000000" stroke-width="0"/><path d="M245.95308,184.47886c-0.59178,-0.23656 -1.12139,-1.38609 -1.12139,-1.38609c0,0 1.17608,-0.46769 1.76786,-0.23113c0.59178,0.23656 0.92681,0.79036 0.7483,1.23695c-0.17852,0.44658 -0.80298,0.61684 -1.39477,0.38028z" data-paper-data="{&quot;index&quot;:null}" fill="#000000" stroke-width="0"/><path d="M250.94407,184.71728c-0.05591,0.47768 -0.61438,0.80486 -1.24738,0.73077c-0.63299,-0.07409 -1.44399,-1.04578 -1.44399,-1.04578c0,0 1.01346,-0.75815 1.64646,-0.68407c0.633,0.07409 1.10082,0.52139 1.04491,0.99908z" data-paper-data="{&quot;index&quot;:null}" fill="#000000" stroke-width="0"/><path d="M251.39363,180.52558c0.10137,0.47013 -0.3215,0.96015 -0.9445,1.09448c-0.623,0.13433 -1.70436,-0.52336 -1.70436,-0.52336c0,0 0.71428,-1.04484 1.33728,-1.17917c0.62301,-0.13433 1.21022,0.1379 1.31159,0.60805z" data-paper-data="{&quot;index&quot;:null}" fill="#000000" stroke-width="0"/></g></g></g></svg>