<svg version="1.1" xmlns="http://www.w3.org/2000/svg" xmlns:xlink="http://www.w3.org/1999/xlink" width="38.46528" height="45.14434" viewBox="0,0,38.46528,45.14434"><g transform="translate(-220.76736,-157.42783)"><g data-paper-data="{&quot;isPaintingLayer&quot;:true}" fill-rule="nonzero" stroke-linecap="butt" stroke-linejoin="miter" stroke-miterlimit="10" stroke-dasharray="" stroke-dashoffset="0" style="mix-blend-mode: normal"><path d="M222.51736,200.82217v-41.64434h34.96528v41.64434z" fill="#e5eaff" stroke="#1e2b56" stroke-width="3.5"/><g stroke="#1e2b56" stroke-width="0"><path d="M235.78863,168.9663c1.59756,2.68043 0.15381,6.02008 0.15381,6.02008c0,0 -3.45256,-0.42139 -5.05012,-3.10183c-1.59756,-2.68043 -0.73517,-6.60489 -0.73517,-6.60489c0,0 4.03393,1.0062 5.63149,3.68664z" fill="#62d630"/><path d="M234.74099,171.54237c0.67063,1.12522 1.21362,3.65614 1.21362,3.65614c0,0 -1.61734,-1.73652 -2.28798,-2.86176c-0.67063,-1.12522 -1.72073,-4.24405 -1.72073,-4.24405c0,0 2.12444,2.32444 2.79509,3.44966z" fill="#418e1f"/></g><g stroke="#1e2b56" stroke-width="0"><path d="M240.43947,167.23955c1.06978,2.93128 -0.97133,5.9432 -0.97133,5.9432c0,0 -3.31345,-1.05773 -4.38323,-3.98903c-1.06978,-2.93128 0.50919,-6.62614 0.50919,-6.62614c0,0 3.7756,1.74068 4.84537,4.67197z" fill="#62d630"/><path d="M238.92991,169.57513c0.44908,1.23053 0.51067,3.81831 0.51067,3.81831c0,0 -1.26521,-2.00762 -1.71429,-3.23816c-0.44908,-1.23053 -0.89926,-4.49046 -0.89926,-4.49046c0,0 1.65381,2.67978 2.10289,3.91031z" fill="#418e1f"/></g><g stroke="#1e2b56" stroke-width="0"><path d="M232.18889,171.44244c2.68424,1.59116 3.0119,5.21475 3.0119,5.21475c0,0 -3.23421,1.27969 -5.91845,-0.31148c-2.68424,-1.59116 -3.80206,-5.45063 -3.80206,-5.45063c0,0 4.02438,-1.04379 6.7086,0.54736z" fill="#62d630"/><path d="M232.49964,174.20597c1.12682,0.66796 2.81325,2.63172 2.81325,2.63172c0,0 -2.25055,-0.75254 -3.37737,-1.4205c-1.12682,-0.66796 -3.53964,-2.90584 -3.53964,-2.90584c0,0 2.97695,1.02667 4.10378,1.69462z" fill="#418e1f"/></g><path d="M230.90561,174.73632c3.65718,-5.36945 10.15509,-6.10152 15.77745,-3.25876c0.65168,0.3295 1.95589,-0.4555 2.57826,-0.0316c5.99181,4.08108 7.55472,11.70024 3.47362,17.69206c-4.08108,5.99181 -11.91214,10.18109 -18.91683,5.16874c-8.76429,-5.51181 -6.99356,-13.57862 -2.91248,-19.57044z" fill="#a16d4d" stroke="none" stroke-width="0"/><path d="M248.15619,174.09463c5.26256,4.46193 4.64689,9.42799 3.66052,11.01581c-0.2073,0.33368 -1.97984,-0.05648 -3.33903,-0.406c-0.91965,-0.23649 -2.15461,0.55163 -3.1521,0.08547c-0.92203,-0.43088 -1.44893,-1.62238 -2.3083,-2.32715c-1.08124,-0.8867 -3.39971,-1.07908 -3.77544,-2.21359c-0.39903,-1.20492 -0.60056,-2.82308 -0.7745,-3.46903c-0.22876,-0.84957 -3.28205,-3.03212 -3.01278,-3.26198c1.29757,-1.10759 6.00603,-2.76011 10.8748,0.39892c0.46585,0.30226 1.36084,-0.21748 1.82679,0.1776z" fill="#a2b9be" stroke="#ffffff" stroke-width="2"/><path d="M231.65515,184.52963c0.76136,5.4222 2.71112,5.72393 1.97627,6.76448c-0.36207,0.51271 -3.66995,-2.15046 -4.2118,-5.94897c-0.45306,-3.17611 1.77009,-8.20199 2.36509,-8.00214c1.23616,0.41522 -0.58713,3.9281 -0.12957,7.18665z" fill="#e6bca1" stroke="none" stroke-width="0"/></g></g></svg>