<svg version="1.1" xmlns="http://www.w3.org/2000/svg" xmlns:xlink="http://www.w3.org/1999/xlink" width="557.05706" height="393.39339" viewBox="0,0,557.05706,393.39339"><g transform="translate(38.32853,19.29663)"><g data-paper-data="{&quot;isPaintingLayer&quot;:true}" fill-rule="nonzero" stroke-linejoin="miter" stroke-miterlimit="10" stroke-dasharray="" stroke-dashoffset="0" style="mix-blend-mode: normal"><path d="M-38.32853,374.09677v-393.39339h557.05706v393.39339z" fill="#7e77d6" stroke="#1e2b56" stroke-width="0" stroke-linecap="butt"/><g fill="none" stroke="#ffffff" stroke-width="2.5" stroke-linecap="round"><path d="M70.82569,75.34701v23.7976"/><path d="M70.9792,83.22837c1.92136,-2.24358 4.87014,-7.2987 10.44033,-6.93586c4.52684,0.29487 4.75944,7.10398 4.75944,8.77826c0,4.25885 0,14.07385 0,14.07385"/><path d="M86.3325,83.22837c1.92136,-2.24358 4.87014,-7.2987 10.44033,-6.93586c4.52684,0.29487 4.75944,7.10398 4.75944,8.77826c0,4.25885 0,14.07385 0,14.07385"/></g><g fill="none" stroke="#ffffff" stroke-width="2.5" stroke-linecap="round"><path d="M347.185,99.14461v-23.7976"/><path d="M347.33852,83.22837c1.92136,-2.24358 4.87014,-7.2987 10.44033,-6.93586c4.52684,0.29487 4.75944,7.10398 4.75944,8.77826c0,4.25885 0,14.07385 0,14.07385"/><path d="M362.69182,83.22837c1.92136,-2.24358 4.87014,-7.2987 10.44033,-6.93586c4.52684,0.29487 4.75944,7.10398 4.75944,8.77826c0,4.25885 0,14.07385 0,14.07385"/></g><g fill="none" stroke="#ffffff" stroke-width="2.5" stroke-linecap="round"><path d="M142.57282,75.34701v23.7976"/><path d="M142.72634,83.22837c1.92136,-2.24358 4.87014,-7.2987 10.44033,-6.93586c4.52684,0.29487 4.75944,7.10398 4.75944,8.77826c0,4.25885 0,14.07385 0,14.07385"/><path d="M158.07964,83.22837c1.92136,-2.24358 4.87014,-7.2987 10.44033,-6.93586c4.52684,0.29487 4.75944,7.10398 4.75944,8.77826c0,4.25885 0,14.07385 0,14.07385"/></g><path d="M180.10524,103.84904v-38.65596h32.45619v38.65596z" fill="#e5eaff" stroke="#1e2b56" stroke-width="3.5" stroke-linecap="butt"/><path d="M408.57431,95.04889c-3.23022,4.09484 -4.23462,4.73982 -11.91224,4.70281c-5.41497,-0.03813 -10.10577,-3.05943 -10.4415,-11.86026c-0.40056,-7.31742 3.87212,-12.42438 12.76754,-11.89869c9.61592,0.56827 10.31896,11.50367 10.31896,11.50367h-21.98774" fill="none" stroke="#ffffff" stroke-width="2.5" stroke-linecap="round"/><path d="M132.07431,95.04889c-3.23022,4.09484 -4.23462,4.73982 -11.91224,4.70281c-5.41497,-0.03813 -10.10577,-3.05943 -10.4415,-11.86026c-0.40056,-7.31742 3.87212,-12.42438 12.76754,-11.89869c9.61592,0.56827 10.31896,11.50367 10.31896,11.50367h-21.98774" fill="none" stroke="#ffffff" stroke-width="2.5" stroke-linecap="round"/><g fill="none" stroke="#ffffff" stroke-width="2.5"><path d="M313.80144,87.50171c0,-6.25355 5.06952,-11.32307 11.32307,-11.32307c6.25355,0 11.32304,5.06949 11.32304,11.32307c0,6.25355 -5.06949,11.32307 -11.32304,11.32307c-6.25355,0 -11.32307,-5.06949 -11.32307,-11.32307z" stroke-linecap="butt"/><path d="M337.27918,75.347v23.7976" stroke-linecap="round"/></g><path d="M184.57174,86.73595c0,-6.49576 5.26585,-11.76159 11.76162,-11.76159c6.49576,0 11.76157,5.26583 11.76157,11.76162c0,6.49576 -5.26583,11.76162 -11.76157,11.76162c-6.49576,0 -11.76162,-5.26583 -11.76162,-11.76159z" fill="#ffbe69" stroke="#ffffff" stroke-width="2.5" stroke-linecap="butt"/><g fill="none" stroke="#ffffff" stroke-width="2.5" stroke-linecap="round"><path d="M242.50017,75.92441l13.54679,20.07393"/><path d="M265.03326,74.08198c0,0 -10.92805,35.86278 -20.09971,37.23184c-8.19596,1.22342 -8.2668,-5.02665 -7.75218,-4.52151"/></g><g fill="none" stroke="#ffffff" stroke-width="2.5" stroke-linecap="round"><path d="M222.11045,99.1446v-23.7976"/><path d="M222.22857,83.24965c0,0 1.74876,-4.76213 4.78314,-6.73181c3.0344,-1.96968 5.84606,0.17714 5.84606,0.17714"/></g><g fill="none" stroke="#ffffff" stroke-width="2.5"><path d="M281.91381,87.50171c0,-6.25355 5.06952,-11.32307 11.32307,-11.32307c6.25355,0 11.32304,5.06949 11.32304,11.32307c0,6.25355 -5.06949,11.32307 -11.32304,11.32307c-6.25355,0 -11.32307,-5.06949 -11.32307,-11.32307z" stroke-linecap="butt"/><path d="M305.39155,75.34701v23.7976c0,0 1.39105,12.42233 -11.21968,13.51252c-8.60937,0.74428 -10.09775,-3.89738 -10.09775,-3.89738" stroke-linecap="round"/></g><path d="M-12.803,38.51116v-54.05405h506.00601v54.05405z" fill="#4a449f" stroke="none" stroke-width="0" stroke-linecap="butt"/><path d="M-12.803,373.34602v-54.05405h506.00601v54.05405z" fill="#4a449f" stroke="none" stroke-width="0" stroke-linecap="butt"/></g></g></svg>