<svg version="1.1" xmlns="http://www.w3.org/2000/svg" xmlns:xlink="http://www.w3.org/1999/xlink" width="38.46528" height="45.14434" viewBox="0,0,38.46528,45.14434"><g transform="translate(-220.76736,-157.42783)"><g data-paper-data="{&quot;isPaintingLayer&quot;:true}" fill-rule="nonzero" stroke-linejoin="miter" stroke-miterlimit="10" stroke-dasharray="" stroke-dashoffset="0" style="mix-blend-mode: normal"><path d="M222.51736,200.82217v-41.64434h34.96528v41.64434z" fill="#e5eaff" stroke="#1e2b56" stroke-width="3.5" stroke-linecap="butt"/><g stroke="#1e2b56" stroke-width="0" stroke-linecap="butt"><path d="M239.97218,169.72234c-1.51743,2.72659 -5.13074,3.15287 -5.13074,3.15287c0,0 -1.36734,-3.19814 0.15009,-5.92474c1.51743,-2.72659 5.34502,-3.94916 5.34502,-3.94916c0,0 1.15306,3.99444 -0.36437,6.72102z" fill="#62d630"/><path d="M237.21812,170.10826c-0.63701,1.14459 -2.55409,2.88392 -2.55409,2.88392c0,0 0.69096,-2.27021 1.32795,-3.41482c0.63701,-1.14459 2.80831,-3.61752 2.80831,-3.61752c0,0 -0.94517,3.00382 -1.58216,4.14843z" fill="#418e1f"/></g><path d="M228.50194,170.48022c0,0 1.66469,-0.49339 3.33064,-0.0293c2.25625,0.62854 2.77002,2.44836 2.77002,2.44836" data-paper-data="{&quot;index&quot;:null}" fill="none" stroke="#418e1f" stroke-width="2.5" stroke-linecap="round"/><path d="M229.20707,180.93447c-1.45368,-2.36776 -0.71267,-5.46565 1.65509,-6.91933c2.36776,-1.45368 5.46565,-0.71267 6.91933,1.65509c1.45368,2.36776 0.71266,5.46565 -1.6551,6.91933c-2.36776,1.45368 -5.46565,0.71267 -6.91933,-1.65509z" fill="#8c53ff" stroke="none" stroke-width="0" stroke-linecap="butt"/><path d="M235.83726,172.23639c0.95351,-2.60965 3.84202,-3.95223 6.45168,-2.99872c2.60965,0.95351 3.95223,3.84203 2.99872,6.45169c-0.95351,2.60965 -3.84203,3.95222 -6.45168,2.99871c-2.60965,-0.95351 -3.95223,-3.84202 -2.99871,-6.45167z" fill="#a578ff" stroke="none" stroke-width="0" stroke-linecap="butt"/><path d="M238.23043,170.99048c0.98996,-0.79277 2.3579,-1.06433 3.63615,-0.59729c1.25649,0.4591 2.11914,1.51961 2.38148,2.73736c0.0339,0.15736 -0.10154,0.52671 -0.41383,0.39736c-0.55885,-0.23147 -1.46592,-0.9243 -2.54136,-1.32072c-1.16098,-0.42795 -2.51581,-0.53278 -3.08394,-0.73939c-0.22603,-0.0822 -0.08593,-0.3913 0.02149,-0.47733z" fill="#ccb3ff" stroke="none" stroke-width="0" stroke-linecap="butt"/><path d="M236.53692,182.44071c-1.45368,-2.36776 -0.71266,-5.46566 1.6551,-6.91933c2.36776,-1.45368 5.46565,-0.71267 6.91933,1.65509c1.45368,2.36776 0.71267,5.46565 -1.65509,6.91933c-2.36776,1.45368 -5.46565,0.71267 -6.91933,-1.65509z" fill="#915aff" stroke="none" stroke-width="0" stroke-linecap="butt"/><path d="M240.3348,179.94239c-1.45368,-2.36776 -0.71266,-5.46565 1.6551,-6.91933c2.36776,-1.45368 5.46565,-0.71267 6.91933,1.65509c1.45368,2.36776 0.71267,5.46565 -1.65509,6.91933c-2.36776,1.45368 -5.46565,0.71267 -6.91933,-1.65509z" fill="#884dff" stroke="none" stroke-width="0" stroke-linecap="butt"/><path d="M242.21851,186.27542c-1.45368,-2.36776 -0.71267,-5.46565 1.65509,-6.91933c2.36776,-1.45368 5.46566,-0.71267 6.91934,1.65509c1.45368,2.36776 0.71266,5.46565 -1.6551,6.91933c-2.36776,1.45368 -5.46565,0.71267 -6.91933,-1.65509z" fill="#8b5ce8" stroke="none" stroke-width="0" stroke-linecap="butt"/><path d="M242.02375,174.39976c0.98996,-0.79277 2.3579,-1.06432 3.63615,-0.59728c1.25649,0.4591 2.11914,1.51961 2.38148,2.73736c0.0339,0.15736 -0.10154,0.52671 -0.41383,0.39736c-0.55885,-0.23147 -1.46592,-0.9243 -2.54136,-1.32073c-1.16098,-0.42795 -2.51581,-0.53278 -3.08393,-0.73938c-0.22603,-0.0822 -0.08593,-0.39131 0.02149,-0.47733z" fill="#ccb3ff" stroke="none" stroke-width="0" stroke-linecap="butt"/><path d="M230.09606,186.06181c-1.45368,-2.36776 -0.71266,-5.46565 1.6551,-6.91933c2.36776,-1.45368 5.46565,-0.71267 6.91933,1.65509c1.45368,2.36776 0.71267,5.46565 -1.65509,6.91933c-2.36776,1.45368 -5.46565,0.71267 -6.91933,-1.65509z" fill="#7d4ddd" stroke="none" stroke-width="0" stroke-linecap="butt"/><path d="M235.15033,190.6149c-1.45368,-2.36776 -0.71267,-5.46565 1.65509,-6.91933c2.36776,-1.45368 5.46565,-0.71267 6.91933,1.65509c1.45368,2.36776 0.71267,5.46565 -1.65509,6.91933c-2.36776,1.45368 -5.46565,0.71267 -6.91933,-1.65509z" fill="#8451e8" stroke="none" stroke-width="0" stroke-linecap="butt"/><path d="M241.42577,194.59936c-1.45368,-2.36776 -0.71267,-5.46565 1.65509,-6.91933c2.36776,-1.45368 5.46566,-0.71267 6.91934,1.65509c1.45368,2.36776 0.71266,5.46566 -1.6551,6.91933c-2.36776,1.45368 -5.46565,0.71267 -6.91933,-1.65509z" fill="#7c4cda" stroke="none" stroke-width="0" stroke-linecap="butt"/></g></g></svg>