<svg version="1.1" xmlns="http://www.w3.org/2000/svg" xmlns:xlink="http://www.w3.org/1999/xlink" width="38.46528" height="45.14434" viewBox="0,0,38.46528,45.14434"><g transform="translate(-220.76736,-157.42783)"><g data-paper-data="{&quot;isPaintingLayer&quot;:true}" fill-rule="nonzero" stroke-linejoin="miter" stroke-miterlimit="10" stroke-dasharray="" stroke-dashoffset="0" style="mix-blend-mode: normal"><path d="M222.51736,200.82217v-41.64434h34.96528v41.64434z" fill="#e5eaff" stroke="#1e2b56" stroke-width="3.5" stroke-linecap="butt"/><path d="M239.82106,171.92262c0,0 0.00555,-2.27555 0.31731,-3.39081c0.50235,-1.79708 2.62219,-3.1272 2.62219,-3.1272" fill="none" stroke="#6f3314" stroke-width="2.5" stroke-linecap="round"/><path d="M243.85997,194.56679c-1.18571,0.16008 -2.36605,-0.40385 -3.75848,-0.40703c-1.36876,-0.00312 -2.73917,0.53875 -3.9009,0.34824c-7.78695,-1.27698 -11.20026,-4.90898 -11.20026,-12.45256c0,-7.40408 4.98608,-11.1493 11.46378,-12.09931c1.13129,-0.16591 2.63561,0.71964 3.85211,0.71964c1.64327,0 2.88934,-0.84652 4.34881,-0.57925c5.8074,1.0635 10.06029,4.46428 10.32294,12.13785c0.24431,7.1375 -3.33473,11.28029 -11.12799,12.33242z" fill="#ff7f2f" stroke="none" stroke-width="0" stroke-linecap="butt"/><path d="M238.23873,172.29686c0.74232,0 -1.69552,4.31871 -1.69552,9.96169c0,5.64299 2.43782,10.04698 1.69552,10.04698c-0.74231,0 -4.24052,-4.40399 -4.24052,-10.04698c0,-5.643 3.49822,-9.96169 4.24052,-9.96169z" data-paper-data="{&quot;index&quot;:null}" fill="#ea7228" stroke="none" stroke-width="0" stroke-linecap="butt"/><path d="M245.65569,182.25856c0,5.64299 -3.4982,10.04698 -4.24051,10.04698c-0.7423,0 1.69552,-4.40399 1.69552,-10.04698c0,-5.64299 -2.43784,-9.96169 -1.69552,-9.96169c0.7423,0 4.24051,4.31869 4.24051,9.96169z" data-paper-data="{&quot;index&quot;:null}" fill="#ea7228" stroke="none" stroke-width="0" stroke-linecap="butt"/><path d="M233.60004,172.29686c0.88457,0 -4.44881,4.31871 -4.44881,9.96169c0,5.64299 5.33335,10.04698 4.44881,10.04698c-0.88456,0 -6.44871,-4.40399 -6.44871,-10.04698c0,-5.643 5.56417,-9.96169 6.44871,-9.96169z" data-paper-data="{&quot;index&quot;:null}" fill="#ea7228" stroke="none" stroke-width="0" stroke-linecap="butt"/><path d="M252.84867,182.25856c0,5.64299 -5.56416,10.04698 -6.44871,10.04698c-0.88454,0 4.44881,-4.40399 4.44881,-10.04698c0,-5.64299 -5.33338,-9.96169 -4.44881,-9.96169c0.88454,0 6.44871,4.31869 6.44871,9.96169z" fill="#ea7228" stroke="none" stroke-width="0" stroke-linecap="butt"/></g></g></svg>