<svg version="1.1" xmlns="http://www.w3.org/2000/svg" xmlns:xlink="http://www.w3.org/1999/xlink" width="38.46528" height="45.14434" viewBox="0,0,38.46528,45.14434"><g transform="translate(-220.76736,-157.42783)"><g data-paper-data="{&quot;isPaintingLayer&quot;:true}" fill-rule="nonzero" stroke-linejoin="miter" stroke-miterlimit="10" stroke-dasharray="" stroke-dashoffset="0" style="mix-blend-mode: normal"><path d="M222.51736,200.82217v-41.64434h34.96528v41.64434z" fill="#e5eaff" stroke="#1e2b56" stroke-width="3.5" stroke-linecap="butt"/><g stroke="#1e2b56" stroke-width="0" stroke-linecap="butt"><path d="M239.24721,168.11845c1.52665,2.72144 -0.00426,6.02205 -0.00426,6.02205c0,0 -3.44031,-0.51187 -4.96696,-3.23332c-1.52665,-2.72144 -0.56156,-6.62191 -0.56156,-6.62191c0,0 4.00613,1.11174 5.53278,3.83318z" fill="#62d630"/><path d="M238.13232,170.66614c0.64087,1.14244 1.11725,3.68674 1.11725,3.68674c0,0 -1.5712,-1.77838 -2.21208,-2.92082c-0.64087,-1.14244 -1.60875,-4.28776 -1.60875,-4.28776c0,0 2.0627,2.3794 2.70358,3.52184z" fill="#418e1f"/></g><path d="M239.42063,175.56005c0,0 0.83587,-2.81193 1.62588,-4.09888c0.91406,-1.48903 3.37412,-4.31779 3.37412,-4.31779" fill="none" stroke="#6f3314" stroke-width="2.5" stroke-linecap="round"/><path d="M227.62415,181.83311c0,-4.13577 0.91103,-6.97609 5.08014,-8.66276c3.44105,-1.39213 7.41908,1.05219 7.41908,1.05219c0,0 2.59317,-3.21687 7.27309,-0.9103c4.45515,2.1958 4.97939,4.75126 4.97939,8.52088c0,4.04352 -2.14819,12.31177 -6.33932,13.91982c-3.27558,1.25677 -3.36806,-0.49529 -5.54304,-0.49529c-1.50703,0 -2.78964,1.66257 -5.14497,1.01534c-4.96229,-1.36359 -7.72438,-9.79017 -7.72438,-14.43988z" fill="#eb4343" stroke="none" stroke-width="0" stroke-linecap="butt"/><path d="M250.28741,178.55899c1.40893,3.93887 -0.14013,6.3205 -1.02495,6.3205c-0.62858,0 -0.93953,-2.43593 -2.13531,-5.21014c-1.0643,-2.46918 -2.9735,-4.1722 -2.73319,-5.12473c0.102,-0.40428 4.56496,0.30042 5.89343,4.01437z" fill="#ffb3b3" stroke="none" stroke-width="0" stroke-linecap="butt"/></g></g></svg>