<svg version="1.1" xmlns="http://www.w3.org/2000/svg" xmlns:xlink="http://www.w3.org/1999/xlink" width="557.05706" height="393.39339" viewBox="0,0,557.05706,393.39339"><g transform="translate(38.32853,19.29657)"><g data-paper-data="{&quot;isPaintingLayer&quot;:true}" fill-rule="nonzero" stroke-linejoin="miter" stroke-miterlimit="10" stroke-dasharray="" stroke-dashoffset="0" style="mix-blend-mode: normal"><path d="M-38.32853,374.09683v-393.39339h557.05706v393.39339z" fill="#7e77d6" stroke="#1e2b56" stroke-width="0" stroke-linecap="butt"/><path d="M262.99085,238.07787l25.47204,-34.52766l56.47925,19.92408l-25.47204,34.52766z" fill="#3b54b7" stroke="#1e2b56" stroke-width="5" stroke-linecap="butt"/><g><g fill="none" stroke="#ffffff" stroke-width="2.5" stroke-linecap="round"><path d="M49.44671,75.12824v26.80378"/><path d="M49.61961,84.00519c2.16407,-2.527 5.48535,-8.22069 11.75918,-7.81202c5.09868,0.33212 5.36067,8.00138 5.36067,9.88716c0,4.79684 0,15.8517 0,15.8517"/><path d="M66.91239,84.00519c2.16407,-2.527 5.48535,-8.22069 11.75918,-7.81202c5.09868,0.33212 5.36067,8.00138 5.36067,9.88716c0,4.79684 0,15.8517 0,15.8517"/></g><g fill="none" stroke="#ffffff" stroke-width="2.5" stroke-linecap="round"><path d="M360.71654,101.93202v-26.80378"/><path d="M360.88945,84.00519c2.16407,-2.527 5.48535,-8.22069 11.75918,-7.81202c5.09868,0.33212 5.36067,8.00138 5.36067,9.88716c0,4.79684 0,15.8517 0,15.8517"/><path d="M378.18222,84.00519c2.16407,-2.527 5.48535,-8.22069 11.75918,-7.81202c5.09868,0.33212 5.36067,8.00138 5.36067,9.88716c0,4.79684 0,15.8517 0,15.8517"/></g><g fill="none" stroke="#ffffff" stroke-width="2.5" stroke-linecap="round"><path d="M130.25715,101.93202v-26.80378"/><path d="M130.43006,84.00519c2.16407,-2.527 5.48535,-8.22069 11.75918,-7.81202c5.09868,0.33212 5.36067,8.00138 5.36067,9.88716c0,4.79684 0,15.8517 0,15.8517"/><path d="M147.72284,84.00519c2.16407,-2.527 5.48535,-8.22069 11.75918,-7.81202c5.09868,0.33212 5.36067,8.00138 5.36067,9.88716c0,4.79684 0,15.8517 0,15.8517"/></g><path d="M172.53077,107.23069v-43.53909h36.55615v43.53909z" fill="#e5eaff" stroke="#1e2b56" stroke-width="3.5" stroke-linecap="butt"/><path d="M429.86072,97.31888c-3.63827,4.61211 -4.76955,5.33857 -13.41703,5.29688c-6.099,-0.04295 -11.38236,-3.44591 -11.7605,-13.35848c-0.45116,-8.24178 4.36126,-13.99386 14.38037,-13.40177c10.83063,0.64006 11.62248,12.95685 11.62248,12.95685h-24.7653" fill="none" stroke="#ffffff" stroke-width="2.5" stroke-linecap="round"/><path d="M118.43244,97.31888c-3.63827,4.61211 -4.76955,5.33857 -13.41703,5.29688c-6.099,-0.04295 -11.38236,-3.44591 -11.7605,-13.35848c-0.45116,-8.24178 4.36126,-13.99386 14.38037,-13.40177c10.83063,0.64006 11.62248,12.95685 11.62248,12.95685h-24.7653" fill="none" stroke="#ffffff" stroke-width="2.5" stroke-linecap="round"/><g fill="none" stroke="#ffffff" stroke-width="2.5"><path d="M323.11587,88.81833c0,-7.04352 5.70992,-12.75343 12.75343,-12.75343c7.04352,0 12.7534,5.70988 12.7534,12.75343c0,7.04352 -5.70988,12.75343 -12.7534,12.75343c-7.04352,0 -12.75343,-5.70988 -12.75343,-12.75343z" stroke-linecap="butt"/><path d="M349.55938,101.93198v-26.80378" stroke-linecap="round"/></g><path d="M177.5615,87.95585c0,-7.31632 5.93105,-13.24735 13.24738,-13.24735c7.31632,0 13.24733,5.93103 13.24733,13.24738c0,7.31632 -5.93103,13.24738 -13.24733,13.24738c-7.31632,0 -13.24738,-5.93103 -13.24738,-13.24735z" fill="#ffbe69" stroke="#ffffff" stroke-width="2.5" stroke-linecap="butt"/><g fill="none" stroke="#ffffff" stroke-width="2.5" stroke-linecap="round"><path d="M242.80761,75.77858l15.25806,22.60973"/><path d="M268.18715,73.7034c0,0 -12.30851,40.39307 -22.63876,41.93507c-9.2313,1.37797 -9.31109,-5.66163 -8.73146,-5.09268"/></g><g fill="none" stroke="#ffffff" stroke-width="2.5" stroke-linecap="round"><path d="M219.8422,75.12822v26.80378"/><path d="M219.97525,84.02916c0,0 1.96967,-5.3637 5.38736,-7.58219c3.41771,-2.2185 6.58455,0.19952 6.58455,0.19952"/></g><g fill="none" stroke="#ffffff" stroke-width="2.5"><path d="M287.2001,88.81833c0,-7.04352 5.70992,-12.75343 12.75343,-12.75343c7.04352,0 12.7534,5.70988 12.7534,12.75343c0,7.04352 -5.70988,12.75343 -12.7534,12.75343c-7.04352,0 -12.75343,-5.70988 -12.75343,-12.75343z" stroke-linecap="butt"/><path d="M313.64362,75.12823v26.80378c0,0 1.56677,13.99155 -12.63698,15.21946c-9.69693,0.8383 -11.37333,-4.38971 -11.37333,-4.38971" stroke-linecap="round"/></g></g><g stroke-linecap="butt"><path d="M215.06336,202.03845l34.67562,-46.26683l46.99726,24.06487l-34.67562,46.26684z" fill="#e5eaff" stroke="#1e2b56" stroke-width="6"/><path d="M236.57155,188.18524c2.22341,-2.81537 8.08908,-5.88514 11.29492,-8.12912c1.91192,-1.33829 11.18539,-11.24955 20.05917,-6.96407c10.23093,4.9409 3.57413,16.25964 2.83707,18.00996c-0.93097,2.21082 -0.29062,8.94447 -2.88908,12.41153c-5.00952,6.68409 -13.88402,11.14503 -25.42169,4.86824c-12.66815,-5.83157 -10.26871,-14.49255 -5.88038,-20.19654z" fill="#edffa7" stroke="#88d93b" stroke-width="4"/><path d="" fill="#d4ff51" stroke="none" stroke-width="0"/><path d="M258.84705,200.24459c-2.91248,3.88605 -8.11293,4.89914 -12.07204,2.87188c-3.95911,-2.02725 -5.17763,-6.32716 -2.26515,-10.21322c2.91248,-3.88605 9.66055,-6.49851 13.27477,-4.47665c3.21292,1.79736 3.9749,7.93193 1.06242,11.81799z" fill="#7d5932" stroke="#1e2b56" stroke-width="0"/><path d="M258.31355,194.43083c0.60639,3.59642 -2.59647,6.23899 -3.31282,5.65519c-0.71635,-0.58381 -0.16268,-2.33652 0.14139,-4.7064c0.32486,-2.53187 -1.28426,-4.73206 -0.07111,-5.48204c0.76285,-0.47162 2.69408,1.2806 3.24251,4.53327z" data-paper-data="{&quot;index&quot;:null}" fill="#eac8a4" stroke="none" stroke-width="0"/></g><path d="M90.08246,293.25951l34.25984,-104.56419l102.05153,24.74633l-34.25984,104.56419z" fill="#3b54b7" stroke="#1e2b56" stroke-width="10" stroke-linecap="butt"/><g><path d="M247.99416,305.69921l-58.46006,-56.83493l64.86323,-30.897l58.46006,56.83493z" fill="#e5eaff" stroke="#1e2b56" stroke-width="8.5" stroke-linecap="butt"/><g stroke="#1e2b56" stroke-width="0" stroke-linecap="butt"><path d="M233.12003,246.2829c6.65239,2.36512 8.44581,8.22248 8.44581,8.22248c0,0 -7.1006,2.34144 -13.75299,-0.02369c-6.65239,-2.36512 -10.33752,-8.54116 -10.33752,-8.54116c0,0 8.99232,-2.02274 15.64472,0.34238z" fill="#62d630"/><path d="M234.62826,250.74506c2.79261,0.99286 7.24801,4.04429 7.24801,4.04429c0,0 -5.41117,-1.03869 -8.2038,-2.03154c-2.79261,-0.99286 -9.00348,-4.43024 -9.00348,-4.43024c0,0 7.16665,1.42463 9.95929,2.41749z" fill="#418e1f"/></g><path d="M243.8882,256.28569c0,0 -2.39677,-4.57625 -2.73785,-7.03073c-0.39464,-2.83989 0.19797,-8.87432 0.19797,-8.87432" fill="none" stroke="#6f3314" stroke-width="6" stroke-linecap="round"/><path d="M230.81093,275.27092c-5.80577,-5.64437 -8.10296,-10.32579 -2.73668,-16.31172c4.42914,-4.94061 15.24001,-5.11986 15.24001,-5.11986c0,0 0.29471,-6.68173 12.21426,-7.6692c11.34709,-0.94003 15.90694,2.08435 21.1987,7.22901c5.67626,5.51847 13.29813,18.70098 7.78063,24.59908c-4.3122,4.60966 -6.94329,2.30022 -10.97804,4.22214c-2.79566,1.33168 -2.84109,4.73408 -8.11897,5.93205c-11.11962,2.52393 -28.07268,-6.53569 -34.59992,-12.88147z" fill="#eb4343" stroke="none" stroke-width="0" stroke-linecap="butt"/><path d="M268.25679,250.77617c8.14303,4.13065 8.61272,8.74985 6.97131,9.53172c-1.16606,0.55544 -5.16244,-2.49427 -11.27512,-5.22378c-5.44058,-2.42939 -11.37298,-3.06657 -12.26434,-4.5789c-0.37831,-0.64188 8.89007,-3.62381 16.56811,0.27097z" fill="#ffb3b3" stroke="none" stroke-width="0" stroke-linecap="butt"/></g><g stroke-linecap="butt"><path d="M328.12013,239.16806l26.31368,-60.19301l62.50376,28.5084l-26.31368,60.19301z" fill="#e5eaff" stroke="#1e2b56" stroke-width="6.5"/><g stroke="#1e2b56" stroke-width="0"><path d="M371.97246,203.9439c1.16211,5.17686 -3.52894,8.82688 -3.52894,8.82688c0,0 -5.90552,-3.42407 -7.06763,-8.60094c-1.16211,-5.17686 2.85922,-10.14616 2.85922,-10.14616c0,0 6.57525,4.74337 7.73736,9.92025z" fill="#62d630"/><path d="M368.47197,206.81319c0.48782,2.17319 -0.14074,6.27412 -0.14074,6.27412c0,0 -1.7939,-3.82865 -2.28173,-6.00188c-0.48782,-2.17319 -0.3943,-7.53735 -0.3943,-7.53735c0,0 2.3289,5.09189 2.81676,7.26509z" fill="#418e1f"/></g><g stroke="#1e2b56" stroke-width="0"><path d="M381.37735,205.24003c0.06015,5.10912 -5.49166,7.79838 -5.49166,7.79838c0,0 -5.25476,-4.23042 -5.3149,-9.33957c-0.06015,-5.10912 5.09707,-9.16231 5.09707,-9.16231c0,0 5.64937,5.59436 5.70949,10.70349z" fill="#62d630"/><path d="M377.20309,207.38509c0.02524,2.14477 -1.49979,5.93538 -1.49979,5.93538c0,0 -0.99313,-3.9334 -1.01837,-6.07818c-0.02524,-2.14477 1.22986,-7.22374 1.22986,-7.22374c0,0 1.26308,5.22178 1.28832,7.36655z" fill="#418e1f"/></g><g stroke="#1e2b56" stroke-width="0"><path d="M363.97299,204.58792c3.79293,4.48843 2.08903,9.99314 2.08903,9.99314c0,0 -6.59006,-0.78729 -10.38298,-5.27573c-3.79293,-4.48843 -3.35247,-10.97832 -3.35247,-10.97832c0,0 7.8535,1.77251 11.64641,6.26091z" fill="#62d630"/><path d="M362.7823,208.83572c1.59224,1.88421 3.36606,6.09764 3.36606,6.09764c0,0 -3.54756,-2.92267 -5.1398,-4.80688c-1.59224,-1.88421 -4.49134,-7.08611 -4.49134,-7.08611c0,0 4.67286,3.91116 6.26512,5.79537z" fill="#418e1f"/></g><path d="M359.59771,208.30263c9.93033,-4.77922 22.00854,-0.53939 30.2628,8.15366c0.95674,1.0076 3.78416,0.93632 4.62885,2.05647c8.13223,10.78415 6.11179,23.07123 -4.9696,28.40438c-11.08135,5.33315 -27.72718,5.00344 -37.08159,-7.95261c-12.18427,-15.11264 -3.92177,-25.32872 7.15958,-30.66189z" fill="#a16d4d" stroke="none" stroke-width="0"/><path d="M390.84022,221.44012c6.58798,10.74005 2.34952,17.41605 -0.417,18.90687c-0.58141,0.31329 -3.50347,-1.69587 -5.71229,-3.30926c-1.49453,-1.09165 -4.20012,-0.9594 -5.68868,-2.44648c-1.37595,-1.37456 -1.56497,-3.52636 -2.65586,-5.24572c-1.37255,-2.16321 -5.39547,-4.33161 -5.35027,-6.27779c0.04805,-2.06695 0.71025,-4.57016 0.80747,-5.64564c0.12788,-1.41449 -3.95107,-7.05862 -3.32449,-7.17131c3.01938,-0.54297 12.48037,0.90744 19.18767,9.4432c0.64176,0.81671 2.57005,0.7952 3.15334,1.74615z" fill="#a2b9be" stroke="#ffffff" stroke-width="3"/><path d="M354.74951,223.06907c-2.06511,8.45805 1.22962,10.48387 -0.74148,11.38875c-0.9712,0.44586 -5.20158,-6.10053 -3.77004,-12.03271c1.197,-4.96017 8.34677,-10.41199 9.28411,-9.63801c1.94739,1.60805 -3.53159,5.19899 -4.77262,10.28199z" fill="#e6bca1" stroke="none" stroke-width="0"/></g></g></g></svg>