<svg version="1.1" xmlns="http://www.w3.org/2000/svg" xmlns:xlink="http://www.w3.org/1999/xlink" width="38.46528" height="45.14434" viewBox="0,0,38.46528,45.14434"><g transform="translate(-220.76736,-157.42783)"><g data-paper-data="{&quot;isPaintingLayer&quot;:true}" fill-rule="nonzero" stroke-linejoin="miter" stroke-miterlimit="10" stroke-dasharray="" stroke-dashoffset="0" style="mix-blend-mode: normal"><path d="M222.51736,200.82217v-41.64434h34.96528v41.64434z" fill="#e5eaff" stroke="#1e2b56" stroke-width="3.5" stroke-linecap="butt"/><g stroke="#1e2b56" stroke-width="0" stroke-linecap="butt"><path d="M246.80056,171.5422c-2.34287,2.06104 -5.89031,1.25272 -5.89031,1.25272c0,0 -0.21745,-3.47137 2.12543,-5.53241c2.34287,-2.06104 6.35887,-1.93129 6.35887,-1.93129c0,0 -0.25111,4.14994 -2.59399,6.21098z" fill="#62d630"/><path d="M244.07628,170.98361c-0.98352,0.8652 -3.37235,1.86212 -3.37235,1.86212c0,0 1.41127,-1.90778 2.39479,-2.77299c0.98352,-0.8652 3.85756,-2.46824 3.85756,-2.46824c0,0 -1.89648,2.51389 -2.88,3.3791z" fill="#418e1f"/></g><path d="M239.78759,164.71164c0,0 1.34303,1.626 1.15877,4.01488c-0.19416,2.51719 -1.15877,4.61012 -1.15877,4.61012" fill="none" stroke="#6f3314" stroke-width="2.5" stroke-linecap="round"/><path d="M254.30697,181.40752c0,7.15059 -8.587,14.46168 -13.74159,14.64181c-5.88834,0.20577 -13.74159,-7.49122 -13.74159,-14.64181c0,-4.71093 3.42515,-10.14003 7.99978,-9.76233c3.52375,0.09781 5.9404,1.71065 5.9404,1.71065c0,0 3.01249,-1.24611 6.10767,-0.93015c4.92053,0.57355 7.43534,5.07172 7.43534,8.98183z" fill="#ff8b6e" stroke="none" stroke-width="0" stroke-linecap="butt"/><path d="M238.53723,181.34398c0,4.79631 1.71031,7.60421 1.09615,7.60421c-0.61416,0 -3.20902,-2.79202 -3.20902,-7.58832c0,-4.79631 3.65924,-8.03314 4.2734,-8.03314c0.61416,0 -2.16053,3.22096 -2.16053,8.01725z" fill="#d1664b" stroke="none" stroke-width="0" stroke-linecap="butt"/><path d="M246.64867,174.02964c0.5306,-0.92355 4.25602,0.97132 5.34373,4.64002c1.0877,3.6687 0.32345,8.07003 -1.24319,7.4637c-0.99332,-0.38444 -0.45804,-2.88041 -1.54575,-6.54911c-1.0877,-3.6687 -3.30325,-4.25183 -2.55479,-5.5546z" data-paper-data="{&quot;index&quot;:null}" fill="#ffc2b3" stroke="none" stroke-width="0" stroke-linecap="butt"/></g></g></svg>