<svg version="1.1" xmlns="http://www.w3.org/2000/svg" xmlns:xlink="http://www.w3.org/1999/xlink" width="38.46528" height="45.14434" viewBox="0,0,38.46528,45.14434"><g transform="translate(-220.76736,-157.42783)"><g data-paper-data="{&quot;isPaintingLayer&quot;:true}" fill-rule="nonzero" stroke-linejoin="miter" stroke-miterlimit="10" stroke-dasharray="" stroke-dashoffset="0" style="mix-blend-mode: normal"><path d="M222.51736,200.82217v-41.64434h34.96528v41.64434z" fill="#e5eaff" stroke="#1e2b56" stroke-width="3.5" stroke-linecap="butt"/><g stroke="#1e2b56" stroke-width="0" stroke-linecap="butt"><path d="M249.64391,173.31485c-3.02954,0.74751 -5.80383,-1.60643 -5.80383,-1.60643c0,0 1.4088,-3.18009 4.43835,-3.9276c3.02954,-0.74751 6.53263,1.22061 6.53263,1.22061c0,0 -2.1376,3.56591 -5.16714,4.31342z" fill="#62d630"/><path d="M247.4847,171.56226c-1.27177,0.31379 -3.85112,0.09603 -3.85112,0.09603c0,0 2.13233,-1.04137 3.40411,-1.35518c1.27177,-0.31379 4.56125,-0.4099 4.56125,-0.4099c0,0 -2.84246,1.35524 -4.11424,1.66905z" fill="#418e1f"/></g><path d="M243.34714,171.29163c0,0 0.89553,-2.33427 1.80968,-3.72805c0.79779,-1.21635 2.24911,-1.93593 2.24911,-1.93593" fill="none" stroke="#418e1f" stroke-width="2.5" stroke-linecap="round"/><path d="M230.57768,178.55593c-0.01445,-6.68603 6.42669,-10.2505 13.16314,-8.90167c8.39663,2.51671 9.50211,10.15521 5.31672,16.63675c-10.5716,16.37135 -23.26944,6.60601 -23.21105,5.33928c0.05837,-1.26674 4.74564,-6.38835 4.7312,-13.07437z" fill="#f9b328" stroke="none" stroke-width="0" stroke-linecap="butt"/><path d="M239.79332,171.47052c0.36236,1.16133 -2.51552,2.05489 -3.75166,5.84725c-0.71807,2.20294 -1.80767,7.13065 -2.96225,6.87703c-0.93217,-0.20475 -2.03394,-2.48945 -0.07499,-8.22014c1.14987,-3.36385 6.03903,-5.13135 6.7889,-4.50414c0,0 -0.14071,-0.45097 0,-0.00001z" data-paper-data="{&quot;index&quot;:null}" fill="#ffe6b3" stroke="none" stroke-width="0" stroke-linecap="butt"/></g></g></svg>