<svg version="1.1" xmlns="http://www.w3.org/2000/svg" xmlns:xlink="http://www.w3.org/1999/xlink" width="38.46528" height="45.14434" viewBox="0,0,38.46528,45.14434"><g transform="translate(-220.76736,-157.42783)"><g data-paper-data="{&quot;isPaintingLayer&quot;:true}" fill-rule="nonzero" stroke-linecap="butt" stroke-linejoin="miter" stroke-miterlimit="10" stroke-dasharray="" stroke-dashoffset="0" style="mix-blend-mode: normal"><path d="M222.51736,200.82217v-41.64434h34.96528v41.64434z" fill="#e5eaff" stroke="#1e2b56" stroke-width="3.5"/><path d="M228.49908,184.64742c0.06095,-2.57185 1.97767,-6.5223 2.79708,-9.0497c0.48868,-1.50731 1.4808,-11.04295 7.97867,-11.21098c7.49165,-0.19373 8.47354,9.38589 8.78256,10.7699c0.39032,1.74814 3.44797,5.91486 3.44797,9.03553c0,6.01628 -2.97384,11.87379 -11.70637,11.63381c-9.16093,0.42614 -11.36085,-6.0067 -11.2999,-11.17856z" fill="#edffa7" stroke="#88d93b" stroke-width="2.5"/><path d="" fill="#d4ff51" stroke="none" stroke-width="0"/><path d="M245.33495,185.07231c0,3.4978 -2.38781,5.88889 -5.33333,5.88889c-2.94552,0 -5.33333,-2.39109 -5.33333,-5.88889c0,-3.4978 2.57542,-7.44469 5.33333,-7.33333c2.45169,0.09899 5.33333,3.83553 5.33333,7.33333z" fill="#7d5932" stroke="#1e2b56" stroke-width="0"/><path d="M242.70543,181.46836c1.77522,2.13737 1.11803,4.92305 0.49764,4.7819c-0.6204,-0.14115 -1.02898,-1.46564 -1.82045,-3.10844c-0.84557,-1.75509 -2.59729,-2.65029 -2.24725,-3.54219c0.22011,-0.56085 1.96451,-0.06433 3.57005,1.86875z" data-paper-data="{&quot;index&quot;:null}" fill="#eac8a4" stroke="none" stroke-width="0"/></g></g></svg>