<svg version="1.1" xmlns="http://www.w3.org/2000/svg" xmlns:xlink="http://www.w3.org/1999/xlink" width="167.13992" height="49.2352" viewBox="0,0,167.13992,49.2352"><g transform="translate(-156.33524,-152.3052)"><g data-paper-data="{&quot;isPaintingLayer&quot;:true}" fill="#ffffff" fill-rule="nonzero" stroke="#ffffff" stroke-linecap="butt" stroke-linejoin="miter" stroke-miterlimit="10" stroke-dasharray="" stroke-dashoffset="0" style="mix-blend-mode: normal"><text transform="translate(156.77484,190.5504) scale(0.8792,0.8792)" font-size="40" xml:space="preserve" fill="#ffffff" fill-rule="nonzero" stroke="#ffffff" stroke-width="1" stroke-linecap="butt" stroke-linejoin="miter" stroke-miterlimit="10" stroke-dasharray="" stroke-dashoffset="0" font-family="Sans Serif" font-weight="normal" text-anchor="start" style="mix-blend-mode: normal"><tspan x="0" dy="0">Loɑding</tspan></text><path d="M296.45248,184.27332c0,-2.01629 1.63453,-3.65082 3.65082,-3.65082c2.01629,0 3.65082,1.63453 3.65082,3.65082c0,2.01629 -1.63453,3.65082 -3.65082,3.65082c-2.01629,0 -3.65082,-1.63453 -3.65082,-3.65082z" stroke-width="0.5"/><path d="M306.188,187.27332c0,-2.01629 1.63453,-3.65082 3.65082,-3.65082c2.01629,0 3.65082,1.63453 3.65082,3.65082c0,2.01629 -1.63453,3.65082 -3.65082,3.65082c-2.01629,0 -3.65082,-1.63453 -3.65082,-3.65082z" stroke-width="0.5"/><path d="M315.92352,187.27332c0,-2.01629 1.63453,-3.65082 3.65082,-3.65082c2.01629,0 3.65082,1.63453 3.65082,3.65082c0,2.01629 -1.63453,3.65082 -3.65082,3.65082c-2.01629,0 -3.65082,-1.63453 -3.65082,-3.65082z" stroke-width="0.5"/></g></g></svg>