<svg version="1.1" xmlns="http://www.w3.org/2000/svg" xmlns:xlink="http://www.w3.org/1999/xlink" width="119" height="119" viewBox="0,0,119,119"><g transform="translate(-180.5,-120.5)"><g data-paper-data="{&quot;isPaintingLayer&quot;:true}" fill-rule="nonzero" stroke="#4a449f" stroke-linecap="butt" stroke-linejoin="miter" stroke-miterlimit="10" stroke-dasharray="" stroke-dashoffset="0" style="mix-blend-mode: normal"><path d="M183,180c0,-31.48023 25.51977,-57 57,-57c31.48023,0 57,25.51977 57,57c0,31.48023 -25.51977,57 -57,57c-31.48023,0 -57,-25.51977 -57,-57z" fill="#9185ed" stroke-width="5"/><path d="M270.03836,182.03695c-5.47253,3.24477 -33.73364,20.00136 -44.85123,26.5932c-2.78965,1.65404 -4.49991,0.3803 -4.49991,-3.29526c0,-13.39206 0,-45.20744 0,-51.9136c0,-2.43181 1.29121,-3.92001 2.80109,-3.02478c5.13468,3.04445 34.39451,20.39321 45.59555,27.03453c2.7087,1.60604 2.75314,3.53945 0.95449,4.6059z" fill="#ffffff" stroke-width="0"/></g></g></svg>